<svg width="81" height="49" viewBox="0 0 81 49" fill="none" xmlns="http://www.w3.org/2000/svg">
<rect x="0.5" y="0.220825" width="80" height="48.1148" rx="4" fill="white"/>
<rect x="22.5415" y="4.58447" width="39.8225" height="39.9727" fill="white"/>
<path fill-rule="evenodd" clip-rule="evenodd" d="M22.5417 4.58447H62.3506V26.3729H60.2755C59.6612 26.3729 59.1834 26.523 58.8694 26.7551V26.3729H55.8114C55.3335 26.3729 54.7465 26.4957 54.4735 26.7551V26.3729H49.0127V26.7551C48.5759 26.4411 47.8387 26.3729 47.4974 26.3729H43.8933V26.7551C43.5383 26.4138 42.7875 26.3729 42.3233 26.3729H38.2823L37.354 27.3695L36.4939 26.3729H30.4598V32.9121H36.3711L37.3267 31.8882L38.2277 32.8985H41.8728V31.3558H42.2277C42.7192 31.3558 43.2926 31.3422 43.784 31.1237V32.8848H46.8011V31.1783H46.9513C47.1288 31.1783 47.1424 31.192 47.1424 31.3695V32.8848H56.2892C56.8625 32.8848 57.4905 32.7346 57.8182 32.4753V32.8848H60.7124C61.3131 32.8848 61.9001 32.8029 62.3506 32.5845V44.5572H22.5281V24.8302H24.4393L24.8762 23.779H25.8455L26.2823 24.8302H30.0366V24.0384L30.3779 24.8302H32.3711L32.7124 24.0247V24.8302H42.0639V23.1237H42.2414C42.3779 23.1237 42.4052 23.1374 42.4052 23.3422V24.8302H47.238V24.4207C47.6202 24.6391 48.2209 24.8302 49.0264 24.8302H51.0605L51.4974 23.779H52.4666L52.9035 24.8302H56.8079V23.8336L57.4086 24.8302H60.5486V18.291H57.4359V19.0555L56.9854 18.291H53.7909V19.0555L53.395 18.291H49.081C48.3574 18.291 47.7158 18.3865 47.2107 18.6732V18.291H44.2346V18.6732C43.8933 18.3865 43.4564 18.291 42.9649 18.291H32.098L31.3608 19.9701L30.61 18.291H27.197V19.0555L26.8148 18.291H23.8933L22.5417 21.3899V4.58447ZM39.197 22.9326H36.5759V22.0043H39.1288V21.035H36.5759V20.1886H39.197V19.2056H35.4564V23.8882H39.197V22.9326ZM45.1219 19.2193H46.2687V23.9019H45.1219V19.2193ZM53.6271 30.9872H51.0059V30.0589H53.5588V29.0896H51.0059V28.2432H53.6271V27.2602H49.8864V31.9428H53.6271V30.9872ZM56.6032 29.1032C57.2311 29.1169 57.6407 29.2261 57.8864 29.4855C58.1185 29.7176 58.2277 30.0043 58.2277 30.4684C58.2277 31.465 57.5997 31.9428 56.4666 31.9428H54.2823V30.9326H56.453C56.6578 30.9326 56.8079 30.9053 56.9035 30.8234C56.9854 30.7551 57.04 30.6596 57.04 30.523C57.04 30.3865 56.9854 30.2773 56.9035 30.209C56.8216 30.1408 56.7124 30.0998 56.5213 30.0998C56.4583 30.0982 56.3944 30.0969 56.33 30.0956C55.3178 30.0751 54.1595 30.0517 54.1595 28.6527C54.1595 27.9838 54.5827 27.2602 55.7567 27.2602H57.9957V28.2705H55.9479C55.7431 28.2705 55.6066 28.2841 55.4974 28.3524C55.3745 28.4343 55.3335 28.5435 55.3335 28.6937C55.3335 28.8575 55.4428 28.9804 55.5793 29.035C55.6885 29.0759 55.8114 29.0896 56.0025 29.0896L56.6032 29.1032ZM60.8489 31.9565C61.982 31.9565 62.61 31.4787 62.61 30.4821C62.61 30.0043 62.4871 29.7176 62.255 29.4991C61.9957 29.2398 61.5998 29.1305 60.9718 29.1169L60.3711 29.1032C60.1936 29.1032 60.0571 29.0896 59.9479 29.0486C59.7977 29.0077 59.7021 28.8848 59.7021 28.7073C59.7021 28.5572 59.7431 28.448 59.866 28.366C59.9752 28.2978 60.1117 28.2841 60.3165 28.2841H62.3643V27.2739H60.139C58.9649 27.2739 58.5417 27.9974 58.5417 28.6664C58.5417 30.0649 59.7113 30.0888 60.7134 30.1092C60.7775 30.1105 60.841 30.1118 60.9035 30.1135C61.0946 30.1271 61.2175 30.1544 61.2994 30.2227C61.3813 30.291 61.4359 30.4002 61.4359 30.5367C61.4359 30.6596 61.3813 30.7688 61.2994 30.837C61.2038 30.9189 61.0537 30.9462 60.8489 30.9462H58.6919V31.9565H60.8489ZM47.3335 27.2739C47.9069 27.2739 48.3165 27.3012 48.6851 27.506C49.04 27.7108 49.2585 28.0111 49.2448 28.5435C49.2448 29.2807 48.7533 29.663 48.453 29.7858C48.6987 29.8814 48.9035 30.0452 48.9991 30.1817C49.1629 30.4002 49.1902 30.6186 49.1902 31.0282V31.9565H48.0571V31.3695C48.0571 31.3402 48.0574 31.3097 48.0577 31.2782V31.2782C48.0602 31.0012 48.0635 30.6509 47.8796 30.4548C47.7294 30.291 47.4837 30.25 47.0742 30.25H45.8728V31.9565H44.7533V27.2739H47.3335ZM47.784 29.1988C47.6339 29.2807 47.4564 29.2944 47.238 29.2944H45.8728V28.2568H47.2516C47.4428 28.2568 47.6475 28.2568 47.784 28.3387C47.9206 28.4207 48.0161 28.5572 48.0161 28.7619C48.0161 28.9531 47.9342 29.1169 47.784 29.1988ZM38.7738 27.2739H42.3506C43.238 27.2739 44.2209 27.5196 44.2482 28.8166C44.2482 30.1135 43.2789 30.3865 42.296 30.3865H40.9035V31.9565H38.7192L37.3404 30.4138L35.9069 31.9565H31.4701V27.2739H35.9752L37.3404 28.8166L38.7738 27.2739ZM35.3335 30.9872H32.5895V30.0589H35.0468V29.0896H32.5895V28.2432H35.3881L36.6168 29.6084L35.3335 30.9872ZM38.0639 29.622L39.7704 31.5333V27.779L38.0639 29.622ZM42.337 29.4309H40.8899V28.2432H42.3506C42.7465 28.2432 43.0332 28.407 43.0332 28.8166C43.0195 29.2261 42.7602 29.4309 42.337 29.4309ZM57.9137 23.9019H59.4837V19.2056H58.3369V22.4684L56.3711 19.2056H54.6646V23.6425L52.767 19.2056H51.1015L49.5315 22.8916H49.0264C48.726 22.8916 48.412 22.837 48.2482 22.6596C48.0298 22.4275 47.9342 22.0725 47.9342 21.5674C47.9342 21.0759 48.0707 20.6937 48.2619 20.5026C48.4803 20.2841 48.7124 20.2295 49.1219 20.2295H50.1731V19.2193H49.1083C48.3301 19.2193 47.7567 19.3968 47.4018 19.7654C46.924 20.2568 46.8011 20.8985 46.8011 21.5947C46.8011 22.4411 47.0059 22.9872 47.4018 23.3831C47.784 23.779 48.4803 23.9019 49.0264 23.9019H50.3233L50.7465 22.8507H53.081L53.5178 23.9019H55.7977V20.3933L57.9137 23.9019ZM52.6851 21.8814L51.9206 20.0111L51.1561 21.8814H52.6851ZM42.5417 19.2056C43.1151 19.2056 43.5247 19.2329 43.8933 19.4377C44.2482 19.6561 44.4666 19.9565 44.4803 20.4889C44.4803 21.2261 43.9888 21.6084 43.6885 21.7312C43.9342 21.8268 44.139 21.9906 44.2346 22.1271C44.3847 22.3456 44.412 22.564 44.412 22.9736V23.9019H43.2789V23.3148C43.2789 23.2856 43.2792 23.2551 43.2795 23.2236V23.2236C43.2821 22.9466 43.2853 22.5963 43.1015 22.4002C42.9376 22.2363 42.6919 22.1954 42.2823 22.1954H41.081V23.8882H39.9615V19.2056H42.5417ZM43.0059 21.1442C42.8557 21.2261 42.6782 21.2398 42.4598 21.2398H41.0946V20.2022H42.4735C42.6646 20.2022 42.8694 20.2022 43.0059 20.2841C43.1424 20.366 43.238 20.5026 43.238 20.7073C43.2243 20.8985 43.1424 21.0623 43.0059 21.1442ZM32.767 19.2193H34.6236V23.9019H33.4769V20.2295L31.8523 23.9019H30.8694L29.2448 20.2295V23.9019H26.9649L26.5281 22.8507H24.1936L23.7567 23.9019H22.5417L24.5486 19.2193H26.2141L28.1117 23.6561V19.2193H29.9547L31.4154 22.4002L32.767 19.2193ZM24.6032 21.8814L25.3677 20.0111L26.1322 21.8814H24.6032Z" fill="#6ACFF6"/>
<path fill-rule="evenodd" clip-rule="evenodd" d="M21.7635 42.4958C21.7635 41.4446 20.917 40.5981 19.8659 40.5981C18.801 40.6118 17.9546 41.4446 17.9546 42.4958C17.9546 43.5469 18.801 44.3934 19.8522 44.3934C20.9034 44.3934 21.7635 43.5469 21.7635 42.4958ZM20.33 43.3695H20.685V43.2739C20.6167 43.233 20.6031 43.2057 20.6031 43.1237L20.5894 42.8097C20.5758 42.605 20.5075 42.5231 20.4256 42.4821C20.5211 42.4138 20.6167 42.3046 20.6167 42.0862C20.6167 41.6903 20.3027 41.5947 20.016 41.5947H19.1969V43.3695H19.4973V42.6459H20.016C20.2481 42.6459 20.2754 42.7688 20.2754 42.9053C20.2754 42.9599 20.2891 43.233 20.33 43.3695ZM20.0433 41.8678C20.1525 41.8678 20.3027 41.8951 20.3027 42.1135C20.3027 42.3319 20.1662 42.3592 20.0024 42.3592H19.5109V41.8678H20.0433ZM19.8659 44.1067C20.7942 44.1067 21.4768 43.3831 21.4768 42.4958C21.4768 41.6084 20.7942 40.8848 19.8659 40.8848C18.9375 40.8848 18.2549 41.6084 18.2549 42.4958C18.2549 43.3831 18.9375 44.1067 19.8659 44.1067Z" fill="#0078A9"/>
<path fill-rule="evenodd" clip-rule="evenodd" d="M22.5417 4.58447H62.3506V26.3729H60.2755C59.6612 26.3729 59.1834 26.523 58.8694 26.7551V26.3729H55.8114C55.3335 26.3729 54.7465 26.4957 54.4735 26.7551V26.3729H49.0127V26.7551C48.5759 26.4411 47.8387 26.3729 47.4974 26.3729H43.8933V26.7551C43.5383 26.4138 42.7875 26.3729 42.3233 26.3729H38.2823L37.354 27.3695L36.4939 26.3729H30.4598V32.9121H36.3711L37.3267 31.8882L38.2277 32.8985H41.8728V31.3558H42.2277C42.7192 31.3558 43.2926 31.3422 43.784 31.1237V32.8848H46.8011V31.1783H46.9513C47.1288 31.1783 47.1424 31.192 47.1424 31.3695V32.8848H56.2892C56.8625 32.8848 57.4905 32.7346 57.8182 32.4753V32.8848H60.7124C61.3131 32.8848 61.9001 32.8029 62.3506 32.5845V44.5572H22.5281V24.8302H24.4393L24.8762 23.779H25.8455L26.2823 24.8302H30.0366V24.0384L30.3779 24.8302H32.3711L32.7124 24.0247V24.8302H42.0639V23.1237H42.2414C42.3779 23.1237 42.4052 23.1374 42.4052 23.3422V24.8302H47.238V24.4207C47.6202 24.6391 48.2209 24.8302 49.0264 24.8302H51.0605L51.4974 23.779H52.4666L52.9035 24.8302H56.8079V23.8336L57.4086 24.8302H60.5486V18.291H57.4359V19.0555L56.9854 18.291H53.7909V19.0555L53.395 18.291H49.081C48.3574 18.291 47.7158 18.3865 47.2107 18.6732V18.291H44.2346V18.6732C43.8933 18.3865 43.4564 18.291 42.9649 18.291H32.098L31.3608 19.9701L30.61 18.291H27.197V19.0555L26.8148 18.291H23.8933L22.5417 21.3899V4.58447ZM39.197 22.9326H36.5759V22.0043H39.1288V21.035H36.5759V20.1886H39.197V19.2056H35.4564V23.8882H39.197V22.9326ZM45.1219 19.2193H46.2687V23.9019H45.1219V19.2193ZM53.6271 30.9872H51.0059V30.0589H53.5588V29.0896H51.0059V28.2432H53.6271V27.2602H49.8864V31.9428H53.6271V30.9872ZM56.6032 29.1032C57.2311 29.1169 57.6407 29.2261 57.8864 29.4855C58.1185 29.7176 58.2277 30.0043 58.2277 30.4684C58.2277 31.465 57.5997 31.9428 56.4666 31.9428H54.2823V30.9326H56.453C56.6578 30.9326 56.8079 30.9053 56.9035 30.8234C56.9854 30.7551 57.04 30.6596 57.04 30.523C57.04 30.3865 56.9854 30.2773 56.9035 30.209C56.8216 30.1408 56.7124 30.0998 56.5213 30.0998C56.4583 30.0982 56.3944 30.0969 56.33 30.0956C55.3178 30.0751 54.1595 30.0517 54.1595 28.6527C54.1595 27.9838 54.5827 27.2602 55.7567 27.2602H57.9957V28.2705H55.9479C55.7431 28.2705 55.6066 28.2841 55.4974 28.3524C55.3745 28.4343 55.3335 28.5435 55.3335 28.6937C55.3335 28.8575 55.4428 28.9804 55.5793 29.035C55.6885 29.0759 55.8114 29.0896 56.0025 29.0896L56.6032 29.1032ZM60.8489 31.9565C61.982 31.9565 62.61 31.4787 62.61 30.4821C62.61 30.0043 62.4871 29.7176 62.255 29.4991C61.9957 29.2398 61.5998 29.1305 60.9718 29.1169L60.3711 29.1032C60.1936 29.1032 60.0571 29.0896 59.9479 29.0486C59.7977 29.0077 59.7021 28.8848 59.7021 28.7073C59.7021 28.5572 59.7431 28.448 59.866 28.366C59.9752 28.2978 60.1117 28.2841 60.3165 28.2841H62.3643V27.2739H60.139C58.9649 27.2739 58.5417 27.9974 58.5417 28.6664C58.5417 30.0649 59.7113 30.0888 60.7134 30.1092C60.7775 30.1105 60.841 30.1118 60.9035 30.1135C61.0946 30.1271 61.2175 30.1544 61.2994 30.2227C61.3813 30.291 61.4359 30.4002 61.4359 30.5367C61.4359 30.6596 61.3813 30.7688 61.2994 30.837C61.2038 30.9189 61.0537 30.9462 60.8489 30.9462H58.6919V31.9565H60.8489ZM47.3335 27.2739C47.9069 27.2739 48.3165 27.3012 48.6851 27.506C49.04 27.7108 49.2585 28.0111 49.2448 28.5435C49.2448 29.2807 48.7533 29.663 48.453 29.7858C48.6987 29.8814 48.9035 30.0452 48.9991 30.1817C49.1629 30.4002 49.1902 30.6186 49.1902 31.0282V31.9565H48.0571V31.3695C48.0571 31.3402 48.0574 31.3097 48.0577 31.2782V31.2782C48.0602 31.0012 48.0635 30.6509 47.8796 30.4548C47.7294 30.291 47.4837 30.25 47.0742 30.25H45.8728V31.9565H44.7533V27.2739H47.3335ZM47.784 29.1988C47.6339 29.2807 47.4564 29.2944 47.238 29.2944H45.8728V28.2568H47.2516C47.4428 28.2568 47.6475 28.2568 47.784 28.3387C47.9206 28.4207 48.0161 28.5572 48.0161 28.7619C48.0161 28.9531 47.9342 29.1169 47.784 29.1988ZM38.7738 27.2739H42.3506C43.238 27.2739 44.2209 27.5196 44.2482 28.8166C44.2482 30.1135 43.2789 30.3865 42.296 30.3865H40.9035V31.9565H38.7192L37.3404 30.4138L35.9069 31.9565H31.4701V27.2739H35.9752L37.3404 28.8166L38.7738 27.2739ZM35.3335 30.9872H32.5895V30.0589H35.0468V29.0896H32.5895V28.2432H35.3881L36.6168 29.6084L35.3335 30.9872ZM38.0639 29.622L39.7704 31.5333V27.779L38.0639 29.622ZM42.337 29.4309H40.8899V28.2432H42.3506C42.7465 28.2432 43.0332 28.407 43.0332 28.8166C43.0195 29.2261 42.7602 29.4309 42.337 29.4309ZM57.9137 23.9019H59.4837V19.2056H58.3369V22.4684L56.3711 19.2056H54.6646V23.6425L52.767 19.2056H51.1015L49.5315 22.8916H49.0264C48.726 22.8916 48.412 22.837 48.2482 22.6596C48.0298 22.4275 47.9342 22.0725 47.9342 21.5674C47.9342 21.0759 48.0707 20.6937 48.2619 20.5026C48.4803 20.2841 48.7124 20.2295 49.1219 20.2295H50.1731V19.2193H49.1083C48.3301 19.2193 47.7567 19.3968 47.4018 19.7654C46.924 20.2568 46.8011 20.8985 46.8011 21.5947C46.8011 22.4411 47.0059 22.9872 47.4018 23.3831C47.784 23.779 48.4803 23.9019 49.0264 23.9019H50.3233L50.7465 22.8507H53.081L53.5178 23.9019H55.7977V20.3933L57.9137 23.9019ZM52.6851 21.8814L51.9206 20.0111L51.1561 21.8814H52.6851ZM42.5417 19.2056C43.1151 19.2056 43.5247 19.2329 43.8933 19.4377C44.2482 19.6561 44.4666 19.9565 44.4803 20.4889C44.4803 21.2261 43.9888 21.6084 43.6885 21.7312C43.9342 21.8268 44.139 21.9906 44.2346 22.1271C44.3847 22.3456 44.412 22.564 44.412 22.9736V23.9019H43.2789V23.3148C43.2789 23.2856 43.2792 23.2551 43.2795 23.2236V23.2236C43.2821 22.9466 43.2853 22.5963 43.1015 22.4002C42.9376 22.2363 42.6919 22.1954 42.2823 22.1954H41.081V23.8882H39.9615V19.2056H42.5417ZM43.0059 21.1442C42.8557 21.2261 42.6782 21.2398 42.4598 21.2398H41.0946V20.2022H42.4735C42.6646 20.2022 42.8694 20.2022 43.0059 20.2841C43.1424 20.366 43.238 20.5026 43.238 20.7073C43.2243 20.8985 43.1424 21.0623 43.0059 21.1442ZM32.767 19.2193H34.6236V23.9019H33.4769V20.2295L31.8523 23.9019H30.8694L29.2448 20.2295V23.9019H26.9649L26.5281 22.8507H24.1936L23.7567 23.9019H22.5417L24.5486 19.2193H26.2141L28.1117 23.6561V19.2193H29.9547L31.4154 22.4002L32.767 19.2193ZM24.6032 21.8814L25.3677 20.0111L26.1322 21.8814H24.6032Z" fill="url(#paint0_radial_313_174)"/>
<defs>
<radialGradient id="paint0_radial_313_174" cx="0" cy="0" r="1" gradientUnits="userSpaceOnUse" gradientTransform="translate(29.3078 11.8427) scale(33.2978 33.2071)">
<stop stop-color="#61ADCF"/>
<stop offset="1" stop-color="#0078A9"/>
</radialGradient>
</defs>
</svg>
