<svg width="169" height="44" viewBox="0 0 169 44" fill="none" xmlns="http://www.w3.org/2000/svg">
<rect x="0.5" y="0.130493" width="168.5" height="43.657" rx="4" fill="white"/>
<path d="M32.9819 35.2919H33.9583V28.4761H32.9819V35.2919ZM35.4918 35.2919H36.4099V32.9878C36.4099 31.7767 36.8783 30.937 37.9233 30.937C38.7238 30.9855 38.978 31.5523 38.978 32.7144V35.2919H39.8957V32.3332C39.8957 30.9957 39.3195 30.1947 38.0305 30.1947C37.3373 30.1947 36.6735 30.5367 36.3996 31.103H36.38V30.3118H35.4918V35.2919ZM43.987 30.3118H42.6686V28.867L41.751 29.1595V30.3118H40.6281V31.054H41.751V33.9637C41.751 34.9602 42.3369 35.409 43.284 35.409C43.5769 35.409 43.8601 35.3311 44.0649 35.2727V34.4913C43.9287 34.5795 43.7234 34.6672 43.4403 34.6672C43.0204 34.6672 42.6686 34.3546 42.6686 33.7785V31.054H43.987V30.3118ZM48.8402 34.169C48.6153 34.3546 47.9123 34.6672 47.3072 34.6672C46.4381 34.6672 45.6665 33.9935 45.6665 33.0069H49.2208C49.2208 31.4053 48.6839 30.1947 47.024 30.1947C45.6175 30.1947 44.69 31.2397 44.69 32.7144C44.69 34.3351 45.5004 35.409 47.268 35.409C48.0881 35.409 48.4884 35.214 48.8402 35.0871V34.169ZM45.6665 32.3234C45.735 31.6792 46.1059 30.937 47.004 30.937C47.7952 30.937 48.2444 31.5616 48.2444 32.3234H45.6665ZM49.9145 35.1356C50.3344 35.3604 50.8126 35.409 51.2814 35.409C52.1697 35.409 53.0197 34.921 53.0197 33.8564C53.0197 32.2647 50.8616 32.5581 50.8616 31.5425C50.8616 31.132 51.2716 30.937 51.7405 30.937C51.9551 30.937 52.5018 31.0638 52.7066 31.1907L52.785 30.3897C52.4239 30.2824 52.0722 30.1947 51.6425 30.1947C50.6563 30.1947 49.8847 30.693 49.8847 31.7277C49.8847 33.124 52.0432 33.0465 52.0432 33.9544C52.0432 34.4913 51.5254 34.6672 51.1056 34.6672C50.8415 34.6672 50.3241 34.5496 49.9631 34.3154L49.9145 35.1356ZM54.2988 31.445C54.6697 31.132 55.2263 30.937 55.7436 30.937C56.6617 30.937 56.9743 31.3764 56.9743 32.2357C56.6128 32.2161 56.359 32.2161 55.9979 32.2161C55.0504 32.2161 53.6835 32.6066 53.6835 33.8564C53.6835 34.9406 54.4351 35.409 55.5094 35.409C56.3492 35.409 56.8376 34.9504 57.0522 34.6476H57.0718V35.2919H57.9311C57.9115 35.1454 57.8919 34.8818 57.8919 34.3154V32.2548C57.8919 30.8978 57.3158 30.1947 55.8906 30.1947C55.2557 30.1947 54.7089 30.3897 54.2499 30.6636L54.2988 31.445ZM56.9743 33.3586C56.9743 34.1009 56.4957 34.6672 55.5874 34.6672C55.1675 34.6672 54.6599 34.384 54.6599 33.8564C54.6599 32.978 55.8906 32.8996 56.3884 32.8996C56.5838 32.8996 56.7788 32.9192 56.9743 32.9192V33.3586ZM65.2447 28.603C64.7763 28.4369 64.2389 28.359 63.7901 28.359C62.5599 28.359 61.6031 29.0033 61.6031 30.2143C61.6031 32.3332 64.5323 31.9134 64.5323 33.4365C64.5323 34.2375 63.7509 34.5496 63.1943 34.5496C62.6961 34.5496 62.1106 34.3546 61.7785 34.2179L61.6805 35.1263C62.1302 35.2727 62.5986 35.409 63.0772 35.409C64.4441 35.409 65.567 34.8333 65.567 33.3778C65.567 31.132 62.6378 31.4352 62.6378 30.1261C62.6378 29.4138 63.282 29.2183 63.8293 29.2183C64.3368 29.2183 64.6102 29.3065 65.1084 29.5015L65.2447 28.603ZM66.9736 31.445C67.3444 31.132 67.901 30.937 68.4188 30.937C69.3365 30.937 69.649 31.3764 69.649 32.2357C69.288 32.2161 69.0337 32.2161 68.6726 32.2161C67.7251 32.2161 66.3582 32.6066 66.3582 33.8564C66.3582 34.9406 67.1098 35.409 68.1842 35.409C69.0239 35.409 69.5119 34.9504 69.7269 34.6476H69.7465V35.2919H70.6059C70.5863 35.1454 70.5671 34.8818 70.5671 34.3154V32.2548C70.5671 30.8978 69.9905 30.1947 68.5649 30.1947C67.9304 30.1947 67.3832 30.3897 66.9246 30.6636L66.9736 31.445ZM69.649 33.3586C69.649 34.1009 69.1704 34.6672 68.2625 34.6672C67.8427 34.6672 67.3347 34.384 67.3347 33.8564C67.3347 32.978 68.5648 32.8996 69.0631 32.8996C69.2581 32.8996 69.4536 32.9192 69.649 32.9192V33.3586ZM72.0026 35.2919H72.9202V32.9878C72.9202 31.7767 73.3891 30.937 74.4336 30.937C75.2346 30.9855 75.4884 31.5523 75.4884 32.7144V35.2919H76.406V32.3332C76.406 30.9957 75.8303 30.1947 74.5409 30.1947C73.8477 30.1947 73.1838 30.5367 72.9104 31.103H72.8908V30.3118H72.0026V35.2919ZM77.8513 37.3427H78.7694V34.6084H78.789C79.0717 35.0675 79.5699 35.409 80.4488 35.409C81.9524 35.409 82.5873 34.0813 82.5873 32.7144C82.5873 31.3764 81.8843 30.1947 80.439 30.1947C79.5601 30.1947 78.9938 30.644 78.7498 31.0153H78.7302V30.3118H77.8513V37.3427ZM81.6109 32.7825C81.6301 33.5639 81.2205 34.6672 80.2338 34.6672C79.1991 34.6672 78.7694 33.6418 78.7694 32.8119C78.7694 31.884 79.2476 30.937 80.2436 30.937C81.2396 30.937 81.6301 31.884 81.6109 32.7825ZM83.9836 31.445C84.3545 31.132 84.9115 30.937 85.4289 30.937C86.347 30.937 86.6591 31.3764 86.6591 32.2357C86.298 32.2161 86.0442 32.2161 85.6827 32.2161C84.7356 32.2161 83.3688 32.6066 83.3688 33.8564C83.3688 34.9406 84.1203 35.409 85.1942 35.409C86.0344 35.409 86.5224 34.9504 86.7374 34.6476H86.7566V35.2919H87.6159C87.5963 35.1454 87.5772 34.8818 87.5772 34.3154V32.2548C87.5772 30.8978 87.001 30.1947 85.5749 30.1947C84.9404 30.1947 84.3937 30.3897 83.9346 30.6636L83.9836 31.445ZM86.6591 33.3586C86.6591 34.1009 86.1809 34.6672 85.2726 34.6672C84.8527 34.6672 84.3447 34.384 84.3447 33.8564C84.3447 32.978 85.5749 32.8996 86.0731 32.8996C86.2686 32.8996 86.4641 32.9192 86.6591 32.9192V33.3586ZM88.6805 32.8021C88.6805 34.2277 89.7157 35.409 91.2193 35.409C92.7135 35.409 93.7482 34.2277 93.7482 32.8021C93.7482 31.2887 92.7326 30.1947 91.2193 30.1947C89.6961 30.1947 88.6805 31.2887 88.6805 32.8021ZM89.6569 32.8021C89.6569 31.8551 90.2331 30.937 91.2193 30.937C92.1957 30.937 92.7718 31.8551 92.7718 32.8021C92.7718 33.6908 92.2932 34.6672 91.2193 34.6672C90.1356 34.6672 89.6569 33.6908 89.6569 32.8021ZM94.9789 35.2919H95.897V27.9681H94.9789V35.2919ZM97.1272 32.8021C97.1272 34.2277 98.1619 35.409 99.666 35.409C101.16 35.409 102.195 34.2277 102.195 32.8021C102.195 31.2887 101.179 30.1947 99.666 30.1947C98.1428 30.1947 97.1272 31.2887 97.1272 32.8021ZM98.1036 32.8021C98.1036 31.8551 98.6798 30.937 99.666 30.937C100.642 30.937 101.219 31.8551 101.219 32.8021C101.219 33.6908 100.74 34.6672 99.666 34.6672C98.5818 34.6672 98.1036 33.6908 98.1036 32.8021ZM111.247 28.7009C110.681 28.5055 110.241 28.359 109.245 28.359C107.165 28.359 105.642 29.7553 105.642 31.855C105.642 34.0225 107.077 35.409 109.236 35.409C110.3 35.409 110.944 35.2335 111.315 35.1066V31.5616H108.903V32.3626H110.339V34.433C110.095 34.4815 109.919 34.5496 109.245 34.5496C107.829 34.5496 106.677 33.4855 106.677 31.884C106.677 30.3608 107.722 29.2183 109.294 29.2183C110.173 29.2183 110.69 29.3746 111.169 29.6872L111.247 28.7009ZM112.838 35.2919H113.756V33.0265C113.756 31.7767 114.294 30.9957 115.114 30.9957C115.27 30.9957 115.455 31.0153 115.621 31.0834V30.2633C115.426 30.2241 115.289 30.1947 115.016 30.1947C114.489 30.1947 113.961 30.5656 113.717 31.0834H113.698V30.3118H112.838V35.2919ZM116.188 32.8021C116.188 34.2277 117.223 35.409 118.726 35.409C120.221 35.409 121.256 34.2277 121.256 32.8021C121.256 31.2887 120.24 30.1947 118.726 30.1947C117.203 30.1947 116.188 31.2887 116.188 32.8021ZM117.164 32.8021C117.164 31.8551 117.74 30.937 118.726 30.937C119.703 30.937 120.279 31.8551 120.279 32.8021C120.279 33.6908 119.801 34.6672 118.726 34.6672C117.643 34.6672 117.164 33.6908 117.164 32.8021ZM126.773 30.3118H125.855V32.6169C125.855 33.8275 125.386 34.6672 124.341 34.6672C123.541 34.6182 123.287 34.0519 123.287 32.8898V30.3118H122.369V33.2704C122.369 34.6084 122.945 35.409 124.234 35.409C124.927 35.409 125.591 35.0675 125.864 34.5011H125.884V35.2919H126.773V30.3118ZM128.218 37.3427H129.136V34.6084H129.155C129.438 35.0675 129.937 35.409 130.815 35.409C132.319 35.409 132.954 34.0813 132.954 32.7144C132.954 31.3764 132.251 30.1947 130.806 30.1947C129.927 30.1947 129.361 30.644 129.116 31.0153H129.097V30.3118H128.218V37.3427ZM131.978 32.7825C131.997 33.5639 131.587 34.6672 130.601 34.6672C129.565 34.6672 129.136 33.6418 129.136 32.8119C129.136 31.884 129.614 30.937 130.61 30.937C131.606 30.937 131.997 31.884 131.978 32.7825Z" fill="#58595B"/>
<path d="M25.0268 12.2499L25.0277 12.2489L25.0208 12.2447H25.0198C24.8981 12.1715 24.7133 12.129 24.5888 12.1841C23.7957 12.1085 23.0376 12.1164 22.2347 12.1258H22.2114L22.1792 12.1267C21.7775 12.1314 21.3614 12.136 20.9453 12.129L17.5822 12.0609C16.7942 12.039 15.9293 12.0455 15.0821 12.0773C14.4551 12.0824 13.8459 12.0987 13.2245 12.1164C12.5774 12.1337 11.0342 12.1384 10.1114 12.1416C9.62018 12.143 9.36313 12.1435 9.32954 12.1454C9.21991 12.1514 9.08835 12.3035 9.08649 12.4257C9.08462 12.4948 9.12474 12.5727 9.2423 12.5839C9.32861 12.5932 9.88563 12.5955 10.9003 12.5918L11.9355 12.5881C12.2112 12.5862 12.339 12.5914 12.3983 12.5853L12.4053 12.5844C13.1666 12.5083 13.9308 12.513 14.6707 12.5172H14.68H14.7276C15.2062 12.5204 15.7012 12.5228 16.199 12.5032C16.3025 12.527 16.4112 12.505 16.5162 12.4836L16.5325 12.4808C16.5796 12.4719 16.6272 12.4626 16.6743 12.4579C16.7877 12.4911 16.9174 12.4892 17.0541 12.4864C17.1861 12.4836 17.3205 12.4813 17.4427 12.5106L17.4432 12.5134L17.4646 12.513V12.5088C17.5719 12.4729 17.6699 12.492 17.7739 12.513C17.7772 12.5134 17.793 12.5162 17.793 12.5162C17.842 12.5256 17.8891 12.5344 17.9339 12.5358C18.8959 12.5097 19.9586 12.5442 21.2854 12.6455C21.2835 12.6455 21.9124 12.7136 21.9124 12.7136H21.9198C22.4768 12.6581 23.0535 12.7005 23.6114 12.7411C23.6133 12.742 23.6259 12.742 23.6259 12.742C24.0443 12.7733 24.4399 12.8027 24.8332 12.7938L24.8355 12.799L24.8589 12.7901L24.8584 12.7845L25.0669 12.6189H25.0683L25.0767 12.6091L25.0753 12.6077C25.1453 12.4971 25.1239 12.3404 25.0268 12.2499Z" fill="#E8B908"/>
<path d="M19.461 19.3966L19.4782 19.3849L19.4778 19.3443L19.4633 18.0353V18.0311V18.0264C19.4391 17.8305 19.4349 17.6135 19.4297 17.3821C19.4237 17.1232 19.4181 16.8545 19.3831 16.618C19.3765 16.2774 19.3094 15.914 19.2441 15.5613L19.1997 15.3225L19.1955 15.3001L19.1792 15.2833C19.1279 15.2306 19.1097 15.1648 19.0892 15.0883C19.0728 15.0239 19.0556 14.9581 19.015 14.8947C18.9273 14.7351 18.7883 14.5793 18.6651 14.4422L18.6586 14.4347C18.6278 14.3941 18.5919 14.3713 18.5611 14.3517C18.5424 14.3391 18.5252 14.3279 18.506 14.312L18.478 14.2878L18.4612 14.2915L18.4384 14.2738C18.3274 14.1851 18.2243 14.1506 18.1039 14.1114L18.1016 14.1109C18.067 14.061 18.0008 14.0536 17.956 14.0522V14.02L17.8935 14.0111L17.6029 13.9677L17.5599 13.9607L17.5333 13.9962C17.5226 14.0102 17.5198 14.0134 17.4592 13.9911C17.4307 13.9817 17.3995 13.9701 17.3659 13.9663L17.3313 13.9635L17.3155 13.9799C17.3062 13.9733 17.295 13.9663 17.2819 13.9593L17.1606 13.9234L17.1513 13.9799C17.0976 13.9789 17.0514 13.9887 17.0123 14.0102H16.9521H16.8205L16.6423 14.0111L16.6633 14.0797L16.66 14.083C16.5812 14.0624 16.5215 14.1109 16.4879 14.1385C16.4818 14.1431 16.4753 14.1487 16.472 14.1515C16.4091 14.1627 16.3722 14.1889 16.3465 14.2085C16.3274 14.2224 16.3218 14.2266 16.3046 14.229L16.2747 14.2308L16.2551 14.2546C16.228 14.2868 16.1445 14.3246 16.0993 14.3437L16.0013 14.3881L16.0228 14.4091C16.0074 14.4151 15.9906 14.4258 15.9761 14.4389H15.9537H15.8814V14.5131V14.514C15.8768 14.514 15.8735 14.514 15.8702 14.5131L15.8166 14.4902C15.8124 14.4879 15.7788 14.5355 15.7788 14.5355C15.7205 14.6157 15.6458 14.695 15.5656 14.7799C15.4737 14.8788 15.3781 14.981 15.3039 15.0911L15.282 15.1238L15.2959 15.1573C15.2787 15.1681 15.2334 15.1961 15.226 15.2502C15.1896 15.2894 15.1812 15.3416 15.1756 15.3766C15.1742 15.3873 15.1719 15.4018 15.1691 15.4088C15.1299 15.4554 15.1215 15.5026 15.1149 15.538C15.1103 15.566 15.1075 15.5814 15.0967 15.5959L15.0492 15.6551L15.0702 15.671C15.0566 15.7064 15.0557 15.7428 15.0557 15.7661C15.0557 15.7759 15.0557 15.7876 15.0543 15.7951L15.0235 15.8147L15.0305 15.8622C15.0436 15.9537 15.0319 16.04 15.0193 16.1296C15.0076 16.2163 14.9969 16.3054 15.0062 16.4039C14.9703 16.4585 14.9783 16.5228 14.9843 16.5639C14.9866 16.5774 14.989 16.5956 14.9885 16.6054L14.9419 16.6413L14.9755 16.6973C15.0002 16.7398 14.9806 16.8065 14.9615 16.8718C14.9428 16.9329 14.9213 17.0089 14.9442 17.0747C14.9381 17.0803 14.9325 17.0854 14.9279 17.0929C14.9199 17.1041 14.912 17.1232 14.9134 17.1475C14.9134 17.1969 14.9092 17.2133 14.9069 17.2165L14.8724 17.2879L14.8682 17.3159L14.9297 17.3602C14.9232 17.4022 14.9279 17.4423 14.933 17.4764C14.9405 17.5235 14.9423 17.5431 14.9279 17.5622L14.8887 17.6331L14.9279 17.6793V17.6919C14.9255 17.7232 14.9218 17.7815 14.9624 17.823C14.9633 17.8314 14.9652 17.8389 14.9671 17.8459L14.8957 17.8641L14.9423 17.9634C14.9419 17.9714 14.9391 17.9798 14.9372 17.9886C14.9297 18.0171 14.9167 18.0754 14.947 18.1253C14.9241 18.1827 14.9381 18.2396 14.9484 18.2765C14.9512 18.2872 14.9545 18.3012 14.9554 18.311C14.8882 18.3819 14.9204 18.4752 14.9391 18.5256C14.9073 18.5736 14.9148 18.6305 14.9218 18.6651L14.8313 18.6963L14.9237 18.791C14.9199 18.8115 14.919 18.8358 14.9339 18.8624C14.9451 18.8787 14.9591 18.889 14.9727 18.8955L14.9451 18.9044C14.9451 18.9077 14.947 18.91 14.9489 18.9132H14.9479L14.981 18.9982L14.9792 19.008C14.9717 19.0574 14.9834 19.1059 15.0076 19.1432C14.9997 19.1544 14.9946 19.1684 14.9922 19.1843L14.9559 19.2202L14.9922 19.2715C15.0193 19.3103 15.0086 19.362 14.9885 19.4427C14.9708 19.5141 14.9489 19.6046 14.9894 19.6821L14.9386 19.732L15.003 19.7791C15.0011 19.7819 14.9997 19.7856 14.9988 19.7875C14.9815 19.8192 14.9512 19.8757 14.989 19.9358L14.9857 19.9303C14.9997 19.9582 14.9932 20.0072 14.9866 20.0571C14.9783 20.1313 14.9671 20.2209 15.0067 20.3086L14.9946 20.3986L14.9969 20.387C14.9866 20.421 14.9946 20.4509 15.0062 20.4728L14.9773 20.4854L14.9969 20.5479C15.0174 20.6109 15.0184 20.6907 15.0184 20.7737C15.0193 20.9323 15.0193 21.1115 15.1616 21.2468L15.1928 21.2766L15.233 21.2645C15.3398 21.2328 15.3449 21.1269 15.3477 21.0699C15.3487 21.0573 15.3491 21.0466 15.3501 21.0373L15.3524 21.021L15.3477 21.006C15.3053 20.8628 15.3239 20.672 15.3393 20.5055C15.344 20.4597 15.3477 20.4178 15.3501 20.3781L15.3524 20.3571L15.3435 20.3389C15.3141 20.2806 15.3211 20.2232 15.3295 20.157C15.337 20.0968 15.344 20.0292 15.3225 19.9582C15.3468 19.6522 15.3328 19.2897 15.3193 18.9692C15.3141 18.8335 15.3085 18.7057 15.3076 18.5872L15.3071 18.5839L15.3062 18.5802C15.2875 18.4285 15.2922 18.2667 15.2973 18.1099C15.302 17.9686 15.3057 17.8239 15.2922 17.69C15.3267 17.537 15.3249 17.398 15.3216 17.2487C15.3207 17.1811 15.3193 17.1125 15.3211 17.0407L15.3225 17.022L15.3179 17.0127C15.3501 16.973 15.3585 16.932 15.3412 16.8914C15.3571 16.8359 15.3594 16.7822 15.3603 16.7337C15.3617 16.6954 15.3631 16.6591 15.3715 16.6255L15.3757 16.6082L15.3706 16.59C15.3608 16.5578 15.3697 16.5205 15.3785 16.4813C15.3892 16.4328 15.4023 16.3763 15.3818 16.3194C15.4387 16.2051 15.4518 16.0642 15.4625 15.9271L15.4672 15.8804C15.4723 15.8501 15.4616 15.8226 15.4378 15.7974V15.7932C15.4378 15.7326 15.469 15.6845 15.5087 15.622C15.5511 15.5548 15.5996 15.4783 15.6122 15.3733L15.6146 15.3561L15.6132 15.3528C15.6178 15.3477 15.6244 15.3425 15.6295 15.3379C15.6556 15.3155 15.6962 15.2819 15.6953 15.2264C15.6953 15.2171 15.6934 15.2077 15.6906 15.1984C15.741 15.1522 15.7727 15.1004 15.8002 15.0538C15.8422 14.9843 15.8721 14.9348 15.9533 14.911L15.9934 14.8994L16.0032 14.8597C16.0153 14.8149 16.0545 14.7888 16.1165 14.7496C16.1637 14.7202 16.2159 14.6871 16.2542 14.6376C16.3069 14.6423 16.3386 14.6278 16.3577 14.6073C16.4212 14.5924 16.4692 14.5551 16.5103 14.5219C16.577 14.4683 16.5989 14.4566 16.6442 14.4776L16.6904 14.4986L16.7202 14.4692C16.7211 14.4692 16.7235 14.4683 16.7258 14.4683C16.7463 14.4622 16.7837 14.4524 16.8042 14.4179C16.8247 14.4137 16.8424 14.4081 16.8578 14.403C16.8947 14.3895 16.9036 14.3881 16.9176 14.3951C16.9301 14.4035 16.9553 14.4128 16.9857 14.4053L16.9875 14.4105L17.0412 14.4035L17.1116 14.3941C17.3216 14.3675 17.503 14.3437 17.6672 14.4319L17.7251 14.4636L17.7605 14.4109C17.768 14.4184 17.7759 14.4272 17.7825 14.4352C17.8245 14.4818 17.8982 14.563 18.005 14.5453C18.0279 14.5658 18.0544 14.5821 18.0778 14.5952C18.0876 14.6003 18.0988 14.6078 18.1081 14.6139V14.6171L18.123 14.6362C18.1561 14.6806 18.2261 14.7016 18.2821 14.7034C18.4062 14.8331 18.5312 15.0104 18.5312 15.0883V15.1611H18.5849C18.5853 15.1629 18.5863 15.1634 18.5863 15.1657C18.6073 15.2609 18.6348 15.3799 18.7085 15.4578C18.6875 15.5068 18.7057 15.5655 18.7146 15.5903C18.7164 15.5982 18.7192 15.6085 18.7211 15.6169L18.7034 15.6719L18.7514 15.7204L18.7617 15.7265C18.7589 15.7759 18.7817 15.8226 18.7976 15.8552C18.8023 15.8641 18.8069 15.8739 18.8097 15.8832L18.7985 15.9094C18.7328 16.0344 18.8209 16.1044 18.8634 16.1375C18.8694 16.1426 18.8746 16.1464 18.8783 16.1496C18.8457 16.1748 18.8471 16.2014 18.8405 16.2457L18.8466 16.3012L18.869 16.3367L18.8704 16.3376C18.8713 16.34 18.8718 16.3432 18.8741 16.3451C18.8769 16.3558 18.8816 16.3707 18.8909 16.3871L18.8652 16.4109L18.848 16.4766L18.8853 16.5284L18.9128 16.5429C18.9124 16.5727 18.924 16.5989 18.9324 16.6161C18.9338 16.6199 18.9352 16.6241 18.9362 16.6273L18.9301 16.6595C18.9058 16.7794 18.876 16.9338 18.9497 17.0584C18.9469 17.0612 18.9455 17.0626 18.9441 17.0645C18.9091 17.1106 18.9175 17.1629 18.924 17.2021C18.9254 17.2142 18.9292 17.2347 18.9278 17.2413L18.9091 17.3159C18.9082 17.3192 18.9324 17.3252 18.9544 17.3299C18.9516 17.3378 18.9483 17.3439 18.9469 17.3532L18.931 17.4391H18.96C18.9558 17.4689 18.9544 17.4969 18.9534 17.5212C18.953 17.5646 18.9511 17.5939 18.9357 17.6168L18.9292 17.6271L18.9264 17.6383C18.9049 17.7171 18.9352 17.7908 18.9576 17.8501C18.9618 17.8627 18.966 17.8734 18.9707 17.8837C18.9576 17.8981 18.9455 17.9172 18.9469 17.9457C18.9469 17.9527 18.9502 17.9578 18.9511 17.9634L18.9357 17.9793L18.9497 18.0217C18.9567 18.0455 18.9721 18.0605 18.9903 18.0698L18.9781 18.074C18.9753 18.074 18.9753 18.13 18.9753 18.13V18.1514L18.9292 18.1631L18.9516 18.2107C18.9408 18.2331 18.9292 18.2653 18.9408 18.3012L18.9091 18.3567C18.911 18.3548 18.9147 18.3898 18.9427 18.4033C18.9138 18.5023 18.9861 18.576 19.029 18.6189C19.0467 18.6361 19.0589 18.6506 19.0668 18.6613H19.0313L19.0584 18.7546L19.0589 18.7574C19.0528 18.763 19.0458 18.7696 19.0402 18.778L18.9795 18.8074L18.9991 18.889L18.9935 18.9077C18.9795 18.9496 18.9903 18.979 19.0029 18.9963C19.0052 19 19.008 19.0024 19.0108 19.0042C18.9893 19.0252 18.9651 19.0574 18.96 19.1059L18.9534 19.1745L19.0099 19.1829C19.0052 19.1978 19.0005 19.2118 18.9968 19.2258C18.9893 19.2515 18.9837 19.2734 18.9721 19.2907L18.9725 19.2916C18.9707 19.2949 18.9688 19.2972 18.9674 19.3L19.0654 19.3546C19.0514 19.3812 19.0435 19.4054 19.0374 19.4255C19.0341 19.4357 19.0304 19.4483 19.0271 19.4558H19.0197H18.9376L18.9422 19.5505C18.9469 19.565 18.9488 19.5813 18.9511 19.6004C18.953 19.6186 18.9558 19.6382 18.96 19.6587V19.7534C18.96 19.766 18.96 19.7856 18.9641 19.8066L18.953 19.8127L18.9604 19.8649C18.9641 19.8915 18.9627 19.9172 18.9604 19.9438C18.96 19.9578 18.9581 19.976 18.9581 19.9928L18.8918 20.0268L18.9725 20.1155L18.9716 20.1201C18.9623 20.1411 18.9511 20.171 18.9511 20.2046H18.8928L18.9917 20.3235C19.0005 20.3338 19.0071 20.3608 19.0131 20.3804C19.0136 20.3823 19.015 20.3846 19.015 20.3874C18.9739 20.4262 18.9683 20.4845 18.9651 20.5157C18.9632 20.5293 18.9618 20.5493 18.9581 20.5563C18.9581 20.5563 18.959 20.5544 18.96 20.5535L18.9847 20.5866C18.9651 20.6011 18.953 20.6174 18.9469 20.631C18.9371 20.6543 18.9357 20.6785 18.9385 20.7005H18.8433L18.9222 20.7779L18.8485 20.8026L18.91 20.8535V21.048C18.91 21.0835 18.9264 21.1129 18.9558 21.1283C18.9576 21.1287 18.96 21.1297 18.96 21.1297C18.9991 21.1553 19.0421 21.1539 19.0766 21.1455V21.2267L19.1699 21.1987C19.2389 21.1786 19.2912 21.1749 19.3453 21.1861L19.4227 21.202L19.4335 21.1241C19.4703 20.832 19.4633 20.5502 19.4559 20.2773C19.4479 20.0114 19.4419 19.76 19.4759 19.5123C19.4969 19.4637 19.4745 19.4194 19.461 19.3966Z" fill="#007638"/>
<path d="M13.8792 19.3966L13.8965 19.3849L13.8955 19.3443L13.8815 18.0353V18.0311V18.0264C13.8577 17.8305 13.8531 17.6135 13.8479 17.3821C13.8419 17.1232 13.8367 16.8545 13.8008 16.618C13.7948 16.2774 13.728 15.914 13.6623 15.5613L13.6184 15.3225L13.6142 15.3001L13.5984 15.2833C13.5452 15.2306 13.5279 15.1648 13.5079 15.0883C13.4906 15.0239 13.4733 14.9581 13.4337 14.8947C13.346 14.7351 13.2056 14.5793 13.0838 14.4422L13.0768 14.4347C13.046 14.3941 13.0101 14.3713 12.9788 14.3517C12.9606 14.3391 12.9434 14.3279 12.9247 14.312L12.8963 14.2878L12.8795 14.2915L12.8566 14.2738C12.746 14.1851 12.6425 14.1506 12.523 14.1114L12.5202 14.1109C12.4853 14.061 12.4195 14.0536 12.3747 14.0522V14.02L12.3117 14.0111L12.0211 13.9677L11.9777 13.9607L11.9516 13.9962C11.9413 14.0102 11.939 14.0134 11.8769 13.9911C11.8489 13.9817 11.8191 13.9701 11.7841 13.9663L11.7505 13.9635L11.7337 13.9799C11.7248 13.9733 11.7136 13.9663 11.701 13.9593L11.5798 13.9234L11.57 13.9799C11.5158 13.9789 11.4692 13.9887 11.4314 14.0102H11.3698H11.2387L11.0601 14.0111L11.0815 14.0797L11.0782 14.083C10.9994 14.0624 10.9392 14.1109 10.907 14.1385C10.9 14.1431 10.894 14.1487 10.8902 14.1515C10.8268 14.1627 10.7909 14.1889 10.7657 14.2085C10.7461 14.2224 10.74 14.2266 10.7228 14.229L10.6929 14.2308L10.6733 14.2546C10.6463 14.2868 10.5627 14.3246 10.517 14.3437L10.4195 14.3881L10.441 14.4091C10.4247 14.4151 10.4088 14.4258 10.3939 14.4389H10.3724H10.2992V14.5131V14.514C10.295 14.514 10.2912 14.514 10.2884 14.5131L10.2353 14.4902C10.2311 14.4879 10.197 14.5355 10.197 14.5355C10.1396 14.6157 10.0636 14.695 9.98474 14.7799C9.8919 14.8788 9.7958 14.981 9.72162 15.0911L9.6997 15.1238L9.71509 15.1573C9.69643 15.1681 9.65211 15.1961 9.64465 15.2502C9.60779 15.2894 9.60033 15.3416 9.5938 15.3766C9.5924 15.3873 9.59007 15.4018 9.58773 15.4088C9.54948 15.4554 9.53922 15.5026 9.53409 15.538C9.52895 15.566 9.52569 15.5814 9.51449 15.5959L9.46831 15.6551L9.48977 15.671C9.4753 15.7064 9.47391 15.7428 9.47391 15.7661C9.47391 15.7759 9.47391 15.7876 9.47297 15.7951L9.44125 15.8147L9.44918 15.8622C9.46271 15.9537 9.45105 16.04 9.43798 16.1296C9.42539 16.2163 9.41466 16.3054 9.42445 16.4039C9.38853 16.4585 9.39646 16.5228 9.40299 16.5639C9.40533 16.5774 9.40813 16.5956 9.40719 16.6054L9.36008 16.6413L9.3932 16.6973C9.41839 16.7398 9.39833 16.8065 9.37967 16.8718C9.36147 16.9329 9.33955 17.0089 9.36287 17.0747C9.35681 17.0803 9.35075 17.0854 9.34608 17.0929C9.33815 17.1041 9.33069 17.1232 9.33162 17.1475C9.33162 17.1969 9.32742 17.2133 9.32509 17.2165L9.29103 17.2879L9.28543 17.3159L9.34841 17.3602C9.34188 17.4022 9.34701 17.4423 9.35214 17.4764C9.35868 17.5235 9.36101 17.5431 9.34701 17.5622L9.30689 17.6331L9.34701 17.6793C9.34701 17.6831 9.34701 17.6872 9.34608 17.6919C9.34421 17.7232 9.34188 17.7815 9.3806 17.823C9.38154 17.8314 9.38387 17.8389 9.38527 17.8459L9.31436 17.8641L9.36101 17.9634C9.36008 17.9714 9.35728 17.9798 9.35634 17.9886C9.34841 18.0171 9.33582 18.0754 9.36474 18.1253C9.34281 18.1827 9.35681 18.2396 9.36614 18.2765C9.36941 18.2872 9.37267 18.3012 9.37407 18.311C9.30643 18.3819 9.33908 18.4752 9.35728 18.5256C9.32602 18.5736 9.33302 18.6305 9.34048 18.6651L9.24951 18.6963L9.34188 18.791C9.33815 18.8115 9.33815 18.8358 9.35261 18.8624C9.36334 18.8787 9.37734 18.889 9.3918 18.8955L9.36334 18.9044C9.36381 18.9077 9.36567 18.91 9.36661 18.9132L9.3988 18.9982L9.39786 19.008C9.3904 19.0574 9.40113 19.1059 9.42539 19.1432C9.41746 19.1544 9.41232 19.1684 9.41046 19.1843L9.37454 19.2202L9.41046 19.2715C9.43752 19.3103 9.42679 19.362 9.40719 19.4427C9.38853 19.5141 9.36661 19.6046 9.40859 19.6821L9.35728 19.732L9.42072 19.7791C9.41979 19.7819 9.41746 19.7856 9.41606 19.7875C9.4002 19.8192 9.37034 19.8757 9.40766 19.9358L9.40346 19.9303C9.41746 19.9582 9.41186 20.0072 9.40533 20.0571C9.39646 20.1313 9.38527 20.2209 9.42539 20.3086L9.41279 20.3986L9.41559 20.387C9.40439 20.421 9.41279 20.4509 9.42445 20.4728L9.39553 20.4854L9.41559 20.5479C9.43565 20.6109 9.43752 20.6907 9.43752 20.7737C9.43752 20.9323 9.43798 21.1115 9.5798 21.2468L9.61106 21.2766L9.65211 21.2645C9.75801 21.2328 9.76361 21.1269 9.76594 21.0699C9.76594 21.0573 9.76734 21.0466 9.76828 21.0373L9.77061 21.021L9.76594 21.006C9.72349 20.8628 9.74215 20.672 9.75801 20.5055C9.76174 20.4597 9.76594 20.4178 9.76828 20.3781L9.77061 20.3571L9.76128 20.3389C9.73235 20.2806 9.73889 20.2232 9.74775 20.157C9.75521 20.0968 9.76268 20.0292 9.74075 19.9582C9.76501 19.6522 9.75101 19.2897 9.73842 18.9692C9.73282 18.8335 9.72769 18.7057 9.72536 18.5872V18.5839L9.72442 18.5802C9.70623 18.4285 9.71136 18.2667 9.71603 18.1099C9.72069 17.9686 9.72442 17.8239 9.71136 17.69C9.74448 17.537 9.74262 17.398 9.74075 17.2487C9.73889 17.1811 9.73842 17.1125 9.74075 17.0407V17.022L9.73702 17.0127C9.76828 16.973 9.77667 16.932 9.75988 16.8914C9.77527 16.8359 9.77761 16.7822 9.77854 16.7337C9.7804 16.6954 9.78134 16.6591 9.78974 16.6255L9.793 16.6082L9.78834 16.59C9.77994 16.5578 9.78787 16.5205 9.7972 16.4813C9.8084 16.4328 9.82006 16.3763 9.80047 16.3194C9.85738 16.2051 9.86998 16.0642 9.88117 15.9271L9.88584 15.8804C9.89004 15.8501 9.88024 15.8226 9.85598 15.7974V15.7932C9.85598 15.7326 9.88677 15.6845 9.92642 15.622C9.96934 15.5548 10.0183 15.4783 10.0309 15.3733L10.0328 15.3561L10.0314 15.3528C10.0365 15.3477 10.0435 15.3425 10.0482 15.3379C10.0743 15.3155 10.1149 15.2819 10.1135 15.2264C10.1135 15.2171 10.1121 15.2077 10.1093 15.1984C10.1597 15.1522 10.1909 15.1004 10.2194 15.0538C10.2604 14.9843 10.2898 14.9348 10.371 14.911L10.4111 14.8994L10.4214 14.8597C10.4331 14.8149 10.4718 14.7888 10.5352 14.7496C10.5823 14.7202 10.6341 14.6871 10.6724 14.6376C10.7246 14.6423 10.7573 14.6278 10.7759 14.6073C10.8389 14.5924 10.8879 14.5551 10.9285 14.5219C10.9947 14.4683 11.0171 14.4566 11.0624 14.4776L11.109 14.4986L11.138 14.4692C11.1403 14.4692 11.1431 14.4683 11.1431 14.4683C11.1655 14.4622 11.2019 14.4524 11.2233 14.4179C11.2429 14.4137 11.2611 14.4081 11.2765 14.403C11.3134 14.3895 11.3232 14.3881 11.3353 14.3951C11.3488 14.4035 11.3731 14.4128 11.4039 14.4053L11.4057 14.4105L11.4594 14.4035L11.5298 14.3941C11.7412 14.3675 11.9217 14.3437 12.0855 14.4319L12.1438 14.4636L12.1792 14.4109C12.1858 14.4184 12.1937 14.4272 12.2011 14.4352C12.2431 14.4818 12.3164 14.563 12.4232 14.5453C12.4465 14.5658 12.4727 14.5821 12.4965 14.5952C12.5058 14.6003 12.5179 14.6078 12.5263 14.6139V14.6171L12.5412 14.6362C12.5739 14.6806 12.6448 14.7016 12.7003 14.7034C12.8244 14.8331 12.9494 15.0104 12.9494 15.0883V15.1611H13.0036C13.0036 15.1629 13.0045 15.1634 13.0045 15.1657C13.025 15.2609 13.0525 15.3799 13.1272 15.4578C13.1062 15.5068 13.1239 15.5655 13.1328 15.5903C13.1346 15.5982 13.1379 15.6085 13.1393 15.6169L13.1216 15.6719L13.1692 15.7204L13.1804 15.7265C13.1771 15.7759 13.1995 15.8226 13.2163 15.8552C13.22 15.8641 13.2251 15.8739 13.2279 15.8832L13.2167 15.9094C13.1519 16.0344 13.2396 16.1044 13.2816 16.1375C13.2881 16.1426 13.2923 16.1464 13.2975 16.1496C13.2639 16.1748 13.2657 16.2014 13.2597 16.2457L13.2657 16.3012L13.2872 16.3367C13.2886 16.3376 13.2881 16.3376 13.2881 16.3376C13.29 16.34 13.2905 16.3432 13.2919 16.3451C13.2951 16.3558 13.2998 16.3707 13.3091 16.3871L13.2835 16.4109L13.2671 16.4766L13.3035 16.5284L13.3315 16.5429C13.3306 16.5727 13.3422 16.5989 13.3506 16.6161C13.3516 16.6199 13.3525 16.6241 13.3553 16.6273L13.3483 16.6595C13.324 16.7794 13.2942 16.9338 13.3684 17.0584C13.3656 17.0612 13.3642 17.0626 13.3618 17.0645C13.3273 17.1106 13.3366 17.1629 13.3422 17.2021C13.3436 17.2142 13.3478 17.2347 13.346 17.2413L13.3273 17.3159C13.3259 17.3192 13.3516 17.3252 13.3721 17.3299C13.3702 17.3378 13.3665 17.3439 13.3651 17.3532L13.3492 17.4391H13.3796C13.3744 17.4689 13.3721 17.4969 13.3721 17.5212C13.3712 17.5646 13.3702 17.5939 13.3539 17.6168L13.3483 17.6271L13.3441 17.6383C13.3231 17.7171 13.3525 17.7908 13.3758 17.8501C13.381 17.8627 13.3842 17.8734 13.3884 17.8837C13.3758 17.8981 13.3642 17.9172 13.3651 17.9457C13.3651 17.9527 13.3684 17.9578 13.3702 17.9634L13.3534 17.9793L13.3679 18.0217C13.3758 18.0455 13.3903 18.0605 13.4085 18.0698L13.3968 18.074C13.3936 18.074 13.3936 18.13 13.3936 18.13V18.1514L13.3478 18.1631L13.3702 18.2107C13.359 18.2331 13.3469 18.2653 13.359 18.3012L13.3287 18.3567C13.3287 18.3548 13.3334 18.3898 13.3609 18.4033C13.332 18.5023 13.4038 18.576 13.4472 18.6189C13.4659 18.6361 13.4775 18.6506 13.485 18.6613H13.4491L13.4761 18.7546L13.4775 18.7574C13.471 18.763 13.464 18.7696 13.4584 18.778L13.3987 18.8074L13.4183 18.889L13.4118 18.9077C13.3978 18.9496 13.4094 18.979 13.4206 18.9963C13.4234 19 13.4267 19.0024 13.4299 19.0042C13.4076 19.0252 13.3842 19.0574 13.3796 19.1059L13.3721 19.1745L13.4285 19.1829C13.4234 19.1978 13.4188 19.2118 13.4155 19.2258C13.4085 19.2515 13.4024 19.2734 13.3903 19.2907L13.3917 19.2916C13.3898 19.2949 13.3866 19.2972 13.3856 19.3L13.4831 19.3546C13.4696 19.3812 13.4617 19.4054 13.4561 19.4255C13.4533 19.4357 13.4486 19.4483 13.4449 19.4558H13.4379H13.3562L13.3604 19.5505C13.3651 19.565 13.3679 19.5813 13.3693 19.6004C13.3712 19.6186 13.3735 19.6382 13.3782 19.6587V19.7534C13.3782 19.766 13.3796 19.7856 13.3824 19.8066L13.3712 19.8127L13.3796 19.8649C13.3824 19.8915 13.381 19.9172 13.3796 19.9438C13.3782 19.9578 13.3772 19.976 13.3777 19.9928L13.3105 20.0268L13.3922 20.1155C13.3917 20.1173 13.3903 20.1187 13.3903 20.1187C13.381 20.1411 13.3698 20.171 13.3698 20.2046H13.3115L13.4099 20.3235C13.4188 20.3338 13.4253 20.3608 13.4313 20.3804C13.4323 20.3823 13.4332 20.3846 13.4337 20.3874C13.3931 20.4262 13.3866 20.4845 13.3842 20.5157C13.381 20.5293 13.38 20.5493 13.3772 20.5563C13.3772 20.5563 13.3777 20.5544 13.3782 20.5535L13.4029 20.5866C13.3842 20.6011 13.3721 20.6174 13.3651 20.631C13.3553 20.6543 13.3539 20.6785 13.3572 20.7005H13.2615L13.3408 20.7779L13.2671 20.8026L13.3287 20.8535V21.048C13.3287 21.0835 13.3441 21.1129 13.3744 21.1283C13.3758 21.1287 13.3777 21.1297 13.3777 21.1297C13.4174 21.1553 13.4598 21.1539 13.4953 21.1455V21.2267L13.589 21.1987C13.6571 21.1786 13.7099 21.1749 13.7644 21.1861L13.8414 21.202L13.8512 21.1241C13.889 20.832 13.8815 20.5502 13.8741 20.2773C13.8666 20.0114 13.8601 19.76 13.8946 19.5123C13.9151 19.4637 13.8941 19.4194 13.8792 19.3966Z" fill="#0060AF"/>
<path d="M24.947 19.4954L24.9638 19.4838V19.4436L24.9493 18.1337V18.1299L24.9489 18.1267C24.9251 17.9298 24.9195 17.7119 24.9153 17.4805C24.9097 17.2216 24.9036 16.9534 24.8686 16.7164C24.8612 16.3763 24.7954 16.0124 24.7291 15.6607L24.6858 15.4213L24.682 15.3985L24.6657 15.3822C24.613 15.3299 24.5953 15.2637 24.5752 15.1867C24.5589 15.1228 24.5416 15.0565 24.501 14.9945C24.4124 14.834 24.2734 14.6787 24.1507 14.5406L24.1441 14.5336C24.1133 14.4925 24.077 14.4701 24.0462 14.4505C24.0284 14.4379 24.0107 14.4277 23.9921 14.4109L23.9636 14.3866L23.9463 14.3903L23.9249 14.3731C23.8138 14.2835 23.7107 14.2499 23.5904 14.2107L23.588 14.2098C23.5517 14.1604 23.4868 14.152 23.4416 14.1506V14.1188L23.38 14.1095L23.0879 14.0661L23.0455 14.0596L23.0184 14.095C23.0086 14.109 23.0058 14.1123 22.9443 14.0894C22.9167 14.0806 22.885 14.0689 22.8519 14.0652L22.8188 14.0624L22.8006 14.0792C22.7922 14.0727 22.781 14.0652 22.7679 14.0587L22.6466 14.0223L22.6373 14.0782C22.5832 14.0778 22.5375 14.0885 22.4978 14.109H22.4376H22.3061L22.1279 14.1095L22.1493 14.1781C22.1479 14.179 22.1465 14.1804 22.1456 14.1818C22.0667 14.1613 22.007 14.2098 21.973 14.2373C21.9674 14.2425 21.9608 14.2476 21.9566 14.2509C21.8937 14.2611 21.8587 14.2877 21.8326 14.3073C21.8139 14.3213 21.8078 14.326 21.7906 14.3274L21.7602 14.3297L21.7402 14.3526C21.7141 14.3861 21.6306 14.4221 21.5848 14.4431L21.4864 14.4864L21.5083 14.5074C21.492 14.5144 21.4761 14.5247 21.4612 14.5382H21.4402H21.367V14.6115V14.6133C21.3628 14.6133 21.3586 14.6129 21.3558 14.6115L21.3026 14.5895C21.2979 14.5867 21.2643 14.6339 21.2643 14.6339C21.2065 14.715 21.1319 14.7948 21.0521 14.8783C20.9597 14.9772 20.8636 15.0794 20.7894 15.19L20.7675 15.2231L20.7815 15.2562C20.7642 15.2669 20.7195 15.2949 20.7106 15.349C20.6756 15.3887 20.6672 15.4405 20.6611 15.4755C20.6602 15.4857 20.6574 15.5007 20.6546 15.5072C20.6159 15.5548 20.607 15.6019 20.6014 15.6373C20.5968 15.6649 20.593 15.6798 20.5818 15.6947L20.5352 15.7544L20.5562 15.7698C20.5417 15.8044 20.5417 15.8421 20.5417 15.8641C20.5417 15.8739 20.5412 15.8865 20.5398 15.8944L20.5095 15.9144L20.5161 15.9611C20.5296 16.053 20.5175 16.1384 20.5044 16.2289C20.4932 16.3152 20.4825 16.4043 20.4918 16.5037C20.4559 16.5573 20.4643 16.6217 20.4703 16.6627C20.4722 16.6758 20.4755 16.6959 20.4741 16.7038L20.4269 16.7406L20.4605 16.7962C20.4862 16.8386 20.4661 16.9053 20.4465 16.9706C20.4293 17.0322 20.4074 17.1092 20.4293 17.174C20.4241 17.1782 20.4176 17.1848 20.413 17.1922C20.4046 17.2025 20.398 17.2226 20.3994 17.2463C20.3994 17.2963 20.3948 17.3121 20.3924 17.3159L20.3588 17.3863L20.3532 17.4157L20.4153 17.4591C20.4083 17.5015 20.4139 17.5412 20.4186 17.5748C20.4265 17.6224 20.4283 17.642 20.4144 17.6611L20.3752 17.732L20.4139 17.7777C20.4139 17.7814 20.4139 17.7861 20.413 17.7903C20.4111 17.822 20.4083 17.8799 20.4479 17.9219C20.4489 17.9298 20.4507 17.9373 20.4526 17.9443L20.3822 17.9634L20.4283 18.0627C20.4269 18.0697 20.4246 18.0781 20.4227 18.087C20.4158 18.1159 20.4027 18.1738 20.4321 18.2246C20.4102 18.2825 20.4241 18.338 20.4339 18.3758C20.4372 18.3865 20.4391 18.4 20.4405 18.4103C20.3738 18.4807 20.406 18.575 20.4246 18.6244C20.3934 18.6725 20.4008 18.7289 20.4074 18.7639L20.3159 18.7952L20.4092 18.8899C20.4046 18.9099 20.4046 18.9356 20.42 18.9608C20.4311 18.9771 20.4451 18.9883 20.4591 18.9939L20.4307 19.0028C20.4316 19.006 20.4325 19.0098 20.4339 19.013H20.433L20.4661 19.0975L20.4652 19.1068C20.4577 19.1567 20.4694 19.2057 20.4932 19.2426C20.4848 19.2528 20.4801 19.2668 20.4787 19.2841L20.4419 19.3195L20.4778 19.3704C20.5044 19.4096 20.4941 19.4604 20.4736 19.5421C20.4563 19.613 20.4344 19.703 20.4755 19.7814L20.4246 19.8313L20.489 19.878C20.4871 19.8817 20.4862 19.8845 20.4834 19.8873C20.4675 19.9171 20.4372 19.9755 20.4741 20.0361L20.4713 20.0286C20.4848 20.0571 20.4787 20.1047 20.4722 20.1569C20.4643 20.2306 20.4531 20.3193 20.4927 20.4074L20.4801 20.497L20.4829 20.4863C20.4717 20.5213 20.4806 20.5497 20.4918 20.5717L20.4629 20.5847L20.4834 20.6458C20.5035 20.7107 20.5044 20.7895 20.5044 20.8735C20.5044 21.0312 20.5044 21.2099 20.6476 21.3456L20.6784 21.375L20.7195 21.3638C20.8249 21.3316 20.8309 21.2257 20.8337 21.1688C20.8347 21.1571 20.8351 21.145 20.8356 21.1361L20.8384 21.1207L20.8337 21.1049C20.7908 20.9612 20.8086 20.7713 20.8249 20.6039C20.8291 20.5595 20.8333 20.5175 20.837 20.4765L20.8384 20.456L20.8282 20.4378C20.7997 20.3795 20.8067 20.3221 20.8151 20.2554C20.8226 20.1952 20.8296 20.128 20.8081 20.0571C20.8333 19.7506 20.8179 19.3881 20.8053 19.0681C20.8002 18.9323 20.7946 18.8045 20.7927 18.6865V18.6827L20.7922 18.6785C20.7736 18.5283 20.7787 18.3655 20.7834 18.2078C20.788 18.0683 20.7913 17.9228 20.7787 17.7889C20.8123 17.6364 20.81 17.4959 20.8072 17.348C20.8067 17.2804 20.8053 17.2118 20.8072 17.1386L20.8081 17.1209L20.8034 17.1115C20.837 17.0714 20.844 17.0308 20.8272 16.9902C20.8426 16.9338 20.8449 16.8811 20.8463 16.8325C20.8482 16.7943 20.8496 16.7584 20.8561 16.7243L20.8608 16.7071L20.8557 16.6889C20.8473 16.6567 20.8552 16.6189 20.8645 16.5806C20.8762 16.5321 20.8874 16.4752 20.8678 16.4183C20.9243 16.3045 20.9368 16.1626 20.949 16.0264L20.9536 15.9798C20.9574 15.9504 20.9476 15.921 20.9238 15.8967V15.8921C20.9238 15.8323 20.9541 15.7834 20.9933 15.7218C21.0371 15.6532 21.0861 15.5776 21.0983 15.4722L21.1001 15.4549L21.0987 15.4517C21.1039 15.447 21.1104 15.4414 21.1155 15.4372C21.1416 15.4143 21.1822 15.3808 21.1808 15.3252C21.1808 15.3159 21.1794 15.3066 21.1766 15.2968C21.227 15.2511 21.2578 15.1997 21.2872 15.1522C21.3283 15.0836 21.3581 15.0337 21.4388 15.0099L21.478 14.9982L21.4892 14.9586C21.5004 14.9133 21.5396 14.8877 21.603 14.8489C21.6501 14.8191 21.701 14.7864 21.7402 14.7365C21.7929 14.7407 21.8242 14.7258 21.8428 14.7062C21.9063 14.6912 21.9557 14.6535 21.9958 14.6208C22.063 14.5667 22.0854 14.555 22.1302 14.5765L22.1764 14.5975L22.2053 14.5686C22.2076 14.5676 22.2095 14.5667 22.2118 14.5667C22.2328 14.5611 22.2692 14.5504 22.2911 14.5168C22.3103 14.513 22.3294 14.5065 22.3439 14.5014C22.3807 14.4883 22.3896 14.4869 22.4031 14.4948C22.4171 14.5023 22.4409 14.5116 22.4707 14.5037L22.4731 14.5093L22.5277 14.5023L22.5976 14.493C22.808 14.4664 22.989 14.4426 23.1523 14.5308L23.2111 14.5625L23.2461 14.5102C23.255 14.5182 23.262 14.527 23.2676 14.5336C23.31 14.5807 23.3837 14.6619 23.4915 14.6437C23.5134 14.6637 23.5405 14.681 23.5633 14.694C23.5731 14.7001 23.5857 14.7066 23.5946 14.7127V14.716L23.6086 14.7356C23.6417 14.779 23.7126 14.8009 23.7681 14.8027C23.8913 14.932 24.0168 15.1088 24.0168 15.1867V15.2595H24.0704L24.0718 15.2641C24.0928 15.3602 24.1199 15.4787 24.1945 15.5566C24.1735 15.6056 24.1913 15.6639 24.1992 15.6896C24.2024 15.6975 24.2048 15.7073 24.2071 15.7152L24.1894 15.7703L24.237 15.8193L24.2482 15.8249C24.2449 15.8743 24.2673 15.9219 24.2841 15.9541C24.2878 15.963 24.2925 15.9728 24.2958 15.9821L24.285 16.0087C24.2192 16.1337 24.3065 16.2032 24.3485 16.2359C24.3555 16.2415 24.3601 16.2447 24.3648 16.2485C24.3317 16.2741 24.3331 16.2998 24.3265 16.345L24.3321 16.4001L24.355 16.4355L24.3564 16.436C24.3573 16.4388 24.3583 16.4411 24.3587 16.4435C24.362 16.4547 24.3667 16.4701 24.376 16.4859L24.3513 16.5097L24.334 16.5755L24.3704 16.6277L24.3993 16.6417C24.3984 16.6716 24.4096 16.6977 24.4175 16.7159C24.4189 16.7187 24.4208 16.7225 24.4222 16.7257L24.4156 16.7593C24.3909 16.8783 24.3611 17.0327 24.4357 17.1586C24.4329 17.1596 24.4315 17.1614 24.4315 17.1614C24.3951 17.21 24.404 17.2627 24.4096 17.3005C24.411 17.3131 24.4152 17.3336 24.4128 17.3406L24.3942 17.4148C24.3937 17.418 24.4189 17.4236 24.4399 17.4288C24.4376 17.4362 24.4343 17.4437 24.4329 17.4516L24.4166 17.5393H24.4464C24.4408 17.5678 24.4399 17.5958 24.4394 17.62C24.438 17.6643 24.4376 17.6923 24.4217 17.7161L24.4156 17.7255L24.4119 17.7371C24.3905 17.8155 24.4194 17.8897 24.4432 17.9499C24.4474 17.961 24.4516 17.9722 24.4548 17.9825C24.4432 17.9965 24.4315 18.0161 24.4329 18.045C24.4329 18.0511 24.4357 18.0562 24.4376 18.0627L24.4217 18.0781L24.4348 18.1206C24.4422 18.1453 24.4581 18.1602 24.4758 18.1691L24.4642 18.1724C24.46 18.1724 24.46 18.2293 24.46 18.2293V18.2494L24.4152 18.2629L24.4376 18.31C24.4268 18.3315 24.4142 18.3641 24.4268 18.4L24.3951 18.456C24.3951 18.456 24.4012 18.4887 24.4282 18.5022C24.3998 18.6016 24.4716 18.6743 24.515 18.7177C24.5327 18.7364 24.5449 18.749 24.5533 18.7597H24.5164L24.5435 18.8535L24.5449 18.8563C24.5379 18.8624 24.5318 18.8689 24.5262 18.8763L24.466 18.9057L24.4852 18.9864L24.4786 19.007C24.4651 19.048 24.4763 19.0779 24.4884 19.0951C24.4912 19.0993 24.494 19.1012 24.4973 19.1031C24.4758 19.1245 24.4502 19.1567 24.4464 19.2043L24.4394 19.2734L24.4954 19.2813C24.4903 19.2967 24.4866 19.3107 24.4819 19.3242C24.4758 19.3508 24.4693 19.3727 24.4581 19.39H24.4586C24.4567 19.3937 24.4544 19.3956 24.4534 19.3993L24.5505 19.4539C24.5369 19.4796 24.5285 19.5052 24.5234 19.5248C24.5201 19.5351 24.5155 19.5477 24.5122 19.5542H24.5057H24.4236L24.4278 19.6498C24.4329 19.6648 24.4348 19.6802 24.4366 19.6997C24.438 19.717 24.4408 19.7366 24.4455 19.7585V19.8528C24.4455 19.8649 24.4464 19.8845 24.4497 19.905L24.4385 19.9111L24.4464 19.9638C24.4502 19.9904 24.4483 20.0156 24.4464 20.0426C24.4455 20.0571 24.4441 20.0739 24.4446 20.0916L24.3779 20.1257L24.459 20.2143C24.4586 20.2162 24.4581 20.2176 24.4572 20.219C24.4483 20.2409 24.4376 20.2703 24.4376 20.303H24.3788L24.4772 20.4228C24.4856 20.4322 24.4931 20.4592 24.4982 20.4784C24.4996 20.4826 24.5006 20.4835 24.501 20.4863C24.46 20.525 24.4539 20.5829 24.4502 20.6146C24.4497 20.6286 24.4474 20.6477 24.4441 20.6542L24.4455 20.6533L24.4702 20.685C24.4511 20.7 24.4394 20.7163 24.4329 20.7307C24.4222 20.7536 24.4217 20.7769 24.425 20.7989H24.3284L24.4077 20.8772L24.334 20.9015L24.3956 20.9519V21.1478C24.3956 21.1823 24.4124 21.2127 24.4408 21.2266C24.4408 21.2266 24.4455 21.2285 24.4464 21.2285C24.4847 21.2542 24.5271 21.2542 24.5626 21.2444V21.326L24.6568 21.298C24.7245 21.2775 24.7777 21.2733 24.8308 21.285L24.9088 21.3004L24.9181 21.2224C24.9559 20.9318 24.9493 20.6491 24.9419 20.3762C24.9349 20.1093 24.9274 19.8593 24.9619 19.6111C24.9829 19.5635 24.961 19.5192 24.947 19.4954Z" fill="#F36F21"/>
<path d="M7.05273 26.674H27.153V6.57511H7.05273V26.674ZM8.11266 7.6355H26.0889V25.6136H8.11266V7.6355Z" fill="#F36F21"/>
<path d="M156.277 18.9027C156.37 18.9027 156.426 18.94 156.463 19.0329L157.95 22.9721C158.043 23.1951 157.913 23.3626 157.782 23.3994C157.597 23.4186 157.523 23.4554 157.523 23.5669C157.523 23.6971 157.746 23.6971 158.08 23.7157C159.566 23.7531 160.923 23.7531 161.592 23.7531C162.28 23.7531 162.447 23.7157 162.447 23.5669C162.447 23.4368 162.354 23.4186 162.205 23.4186C161.982 23.4186 161.703 23.3994 161.425 23.3444C161.034 23.2329 160.496 22.9735 159.789 21.3085C158.6 18.494 155.627 10.9122 155.181 9.89058C154.995 9.46278 154.883 9.29577 154.716 9.29577C154.53 9.29577 154.419 9.5001 154.196 10.0389L149.532 21.7088C149.16 22.6376 148.807 23.2697 147.952 23.3812C147.804 23.3994 147.543 23.4186 147.376 23.4186C147.227 23.4186 147.153 23.4554 147.153 23.5669C147.153 23.7157 147.265 23.7531 147.507 23.7531C148.473 23.7531 149.495 23.6971 149.699 23.6971C150.275 23.6971 151.074 23.7531 151.669 23.7531C151.874 23.7531 151.985 23.7157 151.985 23.5669C151.985 23.4554 151.929 23.4186 151.706 23.4186H151.427C150.851 23.4186 150.684 23.1769 150.684 22.8424C150.684 22.6194 150.777 22.173 150.963 21.7088L151.966 19.0515C152.004 18.94 152.041 18.9027 152.133 18.9027H156.277ZM152.505 17.9734C152.431 17.9734 152.412 17.9179 152.431 17.8437L154.14 13.2719C154.159 13.1977 154.196 13.1049 154.252 13.1049C154.308 13.1049 154.326 13.1977 154.345 13.2719L156.017 17.8624C156.036 17.9179 156.017 17.9734 155.924 17.9734H152.505Z" fill="#007638"/>
<path d="M145.525 15.1788L144.945 14.7846C143.222 13.6029 142.744 12.9461 142.744 12.083C142.744 10.9573 143.679 10.1507 145.214 10.1507C146.563 10.1507 147.166 10.7133 147.477 11.0702C147.913 11.5577 148.017 12.1395 148.017 12.3083C148.017 12.5332 148.079 12.6461 148.224 12.6461C148.39 12.6461 148.453 12.4959 148.453 12.083C148.453 10.6195 148.535 10.0751 148.535 9.83114C148.535 9.70051 148.432 9.64407 148.245 9.60628C147.706 9.47519 146.833 9.28718 145.484 9.28718C142.599 9.28718 140.689 10.7698 140.689 12.8332C140.689 14.3535 141.478 15.6668 143.761 17.28L144.716 17.956C146.439 19.1754 146.75 20.0385 146.75 20.958C146.75 21.9526 145.837 23.0965 143.969 23.0965C142.682 23.0965 141.457 22.5903 141 21.2015C140.897 20.8824 140.814 20.4887 140.814 20.2447C140.814 20.0949 140.793 19.926 140.606 19.926C140.498 19.926 140.434 20.0147 140.397 20.1542C140.372 20.2353 140.357 20.3375 140.343 20.4527C140.322 20.6328 140.257 21.0709 140.234 21.194C140.104 21.9591 139.879 22.3515 139.395 22.5754C138.909 22.7998 138.125 22.7998 137.64 22.7998C135.735 22.7998 134.353 22.5203 134.315 21.2314C134.297 20.6902 134.315 18.9725 134.315 18.3371V16.8624C134.315 16.75 134.334 16.6754 134.428 16.6754C134.875 16.6754 137.534 16.694 137.889 16.7318C138.579 16.806 138.84 17.0859 138.934 17.4596C138.99 17.7022 138.99 17.9448 139.009 18.1323C139.009 18.2247 139.046 18.2998 139.177 18.2998C139.344 18.2998 139.344 18.095 139.344 17.9448C139.344 17.8137 139.382 17.0672 139.419 16.694C139.476 15.7419 139.568 15.4433 139.568 15.3313C139.568 15.2189 139.512 15.1821 139.438 15.1821C139.344 15.1821 139.27 15.2749 139.139 15.4242C138.971 15.6113 138.691 15.6668 138.243 15.7041C137.813 15.7419 134.857 15.7419 134.447 15.7419C134.334 15.7419 134.315 15.6668 134.315 15.5366V10.8127C134.315 10.6816 134.353 10.6261 134.447 10.6261C134.819 10.6261 137.59 10.6634 137.906 10.7007C138.84 10.8127 139.027 11.0366 139.159 11.372C139.251 11.596 139.27 11.9141 139.27 12.0447C139.27 12.2132 139.307 12.3069 139.438 12.3069C139.568 12.3069 139.606 12.1945 139.625 12.1007C139.662 11.8773 139.7 11.0553 139.717 10.8682C139.774 10.0093 139.867 9.78542 139.867 9.65526C139.867 9.56196 139.849 9.48685 139.755 9.48685C139.662 9.48685 139.55 9.5433 139.456 9.56196C139.307 9.59881 139.009 9.6366 138.654 9.67346C138.299 9.69258 133.774 9.69258 133.177 9.69258C132.916 9.69258 132.486 9.67346 132 9.65526C131.616 9.65526 131.182 9.64267 130.758 9.63847C130.741 9.5447 130.704 9.50271 130.624 9.50271C130.479 9.50271 130.034 9.68792 128.849 9.68792H122.563C121.952 9.68792 121.249 9.65153 120.713 9.59415C120.251 9.55916 120.074 9.44207 119.924 9.44207C119.822 9.44207 119.759 9.48032 119.707 9.68185H119.524C119.277 9.68185 119.03 9.69118 118.798 9.70145C118.396 9.71591 118.056 9.7341 117.84 9.73737C117.464 9.73084 116.72 9.68185 115.92 9.68185C115.671 9.68185 115.49 9.70051 115.49 9.84887C115.49 9.9585 115.556 10.0145 115.753 10.0145C115.984 10.0145 116.38 10.0145 116.627 10.1246C116.979 10.2902 117.136 10.5869 117.176 11.4565L117.233 18.9716C116.954 18.6758 108.81 9.61374 108.57 9.42994C108.26 9.19575 107.94 9.41221 107.94 9.70471L107.781 14.5672L107.555 20.9916C107.538 22.5945 107.222 22.9122 106.794 23.1707C106.598 23.2882 106.251 23.3451 106.013 23.3549C105.939 23.3587 105.175 23.3936 104.847 23.3153C104.352 23.1954 104.057 22.8618 104.001 22.3626C103.926 21.5658 103.926 20.1052 103.926 18.3096V15.0519C103.926 12.2388 103.926 11.7205 103.964 11.1276C104.001 10.4801 104.15 10.1647 104.647 10.0728C104.867 10.0355 105.013 10.0168 105.198 10.0168C105.383 10.0168 105.491 9.98089 105.491 9.83114C105.491 9.72151 105.346 9.68372 105.106 9.68372C104.406 9.68372 103.318 9.73877 102.859 9.73877C102.324 9.73877 101.165 9.68372 100.465 9.68372C100.17 9.68372 100.021 9.72151 100.021 9.83114C100.021 9.98089 100.133 10.0168 100.317 10.0168C100.535 10.0168 100.777 10.0355 100.981 10.091C101.385 10.1834 101.571 10.4987 101.606 11.1276C101.643 11.7205 101.643 12.2388 101.643 15.0519V18.3096C101.643 20.1052 101.643 21.5658 101.552 22.3431C101.496 22.8805 101.385 23.1944 101.016 23.2705C100.852 23.3064 100.63 23.3428 100.354 23.3428C100.133 23.3428 100.059 23.3983 100.059 23.4916C100.059 23.6213 100.188 23.6778 100.428 23.6778C101.165 23.6778 102.324 23.6213 102.75 23.6213C103.246 23.6213 106.02 23.6759 106.107 23.6759C107.062 23.6759 108.028 23.646 108.194 23.646C108.542 23.646 109.275 23.7015 110.468 23.7015C110.725 23.7015 110.891 23.6642 110.891 23.5168C110.891 23.4062 110.78 23.3699 110.578 23.3699C110.285 23.3699 109.937 23.3507 109.624 23.2402C109.257 23.1114 109.019 22.6323 108.982 21.194L108.913 17.5627L108.855 13.9495C109.153 14.2999 116.51 22.3445 117.549 23.451C117.729 23.6544 117.927 23.8574 118.107 23.8574C118.255 23.8574 118.322 23.6917 118.322 23.2849L118.503 11.6379C118.505 11.4933 118.51 11.3594 118.516 11.2377C118.573 10.5356 118.73 10.2757 119.053 10.1246C119.225 10.0476 119.468 10.0257 119.679 10.0187C119.667 10.5528 119.679 11.6319 119.679 11.8647C119.679 12.069 119.716 12.1604 119.845 12.1604C119.955 12.1604 120.011 12.0863 120.049 11.9389C120.085 11.7896 120.177 11.5666 120.362 11.2871C120.638 10.8794 121.086 10.7861 122.159 10.7474L124.01 10.6737V18.297C124.01 20.0091 124.01 21.4772 123.919 22.2577C123.863 22.7979 123.643 23.2061 123.273 23.2817C123.107 23.3176 122.512 23.3549 122.235 23.3549C122.013 23.3549 121.939 23.4109 121.939 23.5047C121.939 23.6339 122.068 23.6903 122.31 23.6903C123.048 23.6903 124.695 23.6339 125.119 23.6339C125.638 23.6339 126.806 23.6903 128.026 23.6903C128.23 23.6903 128.38 23.6339 128.38 23.5047C128.38 23.4109 128.285 23.3549 128.083 23.3549C127.804 23.3549 127.396 23.3176 127.138 23.2817C126.585 23.2061 126.473 22.7979 126.417 22.2768C126.323 21.4772 126.323 20.0091 126.323 18.297V10.6737L128.145 10.7296C129.792 10.767 130.354 11.2871 130.39 11.7709L130.408 11.9762C130.428 12.2547 130.465 12.3475 130.614 12.3475C130.725 12.3475 130.76 12.236 130.779 12.0499C130.779 11.5992 130.774 10.4549 130.773 9.98462C130.915 9.99395 131.043 10.0084 131.123 10.028C131.74 10.1591 131.889 10.4577 131.926 11.0921C131.963 11.6907 131.963 12.2132 131.963 15.051V18.3371C131.963 20.0548 131.963 21.5295 131.87 22.3141C131.796 22.8553 131.702 23.2663 131.329 23.3414C131.16 23.3787 130.937 23.416 130.656 23.416C130.433 23.416 130.357 23.4711 130.357 23.5658C130.357 23.695 130.487 23.7515 130.731 23.7515C131.105 23.7515 131.589 23.7328 132.019 23.7141C132.467 23.7141 132.878 23.695 133.083 23.695C133.643 23.695 134.223 23.7141 135.026 23.7515C135.828 23.7711 137.939 23.8074 139.339 23.8074C140.048 23.8074 140.216 23.8074 140.346 23.3223L140.347 23.3213C140.406 23.3978 140.498 23.4506 140.647 23.5093C141.54 23.8658 142.474 23.9973 143.679 23.9973C144.779 23.9973 145.941 23.8284 146.979 23.228C148.473 22.3463 148.93 21.0517 148.93 19.9634C148.93 18.1808 148.037 16.8867 145.525 15.1788Z" fill="#007638"/>
<path d="M77.1094 24.085C78.2668 24.085 79.6411 23.9548 80.3647 23.6576C80.6717 23.5275 80.7444 23.4342 80.8345 23.1188C81.0159 22.4867 81.2324 20.8702 81.2324 20.6472C81.2324 20.4989 81.1965 20.3682 81.0696 20.3682C80.9254 20.3682 80.889 20.4424 80.8345 20.7401C80.7626 21.0745 80.5275 21.6134 80.2196 21.9665C79.4965 22.8216 78.5201 23.0073 76.9106 23.0073C74.4871 23.0073 71.214 20.8142 71.214 16.3917C71.214 14.5891 71.5574 12.8238 72.8776 11.5786C73.6735 10.8355 74.7045 10.4264 76.2776 10.4264C77.9407 10.4264 79.3519 10.9288 79.949 11.5786C80.4006 12.062 80.6357 12.7123 80.6539 13.2884C80.6539 13.5487 80.6903 13.6971 80.8345 13.6971C80.9973 13.6971 81.0332 13.5487 81.0519 13.2698C81.0883 12.8979 81.0696 11.8763 81.106 11.2628C81.1419 10.613 81.1965 10.3895 81.1965 10.2411C81.1965 10.1297 81.1242 10.0363 80.9254 10.0177C80.3824 9.96217 79.8039 9.79469 79.1168 9.70186C78.285 9.59083 77.6155 9.51618 76.4945 9.51618C73.7999 9.51618 72.0817 10.2593 70.7801 11.4863C69.0438 13.1209 68.6636 15.314 68.6636 16.5778C68.6636 18.38 69.1338 20.4611 70.9066 22.0594C72.5524 23.5275 74.6322 24.085 77.1094 24.085Z" fill="#007638"/>
<path d="M41.3912 20.5912C41.3912 22.5445 39.9614 22.9956 39.1175 22.9956C38.6841 22.9956 38.253 22.9751 37.7473 22.7684C37.1469 22.5235 37.0928 22.2062 37.0928 20.9649V16.5194C37.0928 16.4266 37.1292 16.3879 37.201 16.3879C37.4851 16.3879 37.6731 16.3879 38.0104 16.4061C38.7438 16.4425 39.173 16.5745 39.5672 16.8572C40.9942 17.8509 41.3912 19.4272 41.3912 20.5912ZM34.8377 18.3384C34.8377 20.0645 34.8377 21.5508 34.7448 22.3373C34.6664 22.8827 34.5764 23.2923 34.2032 23.3693C34.0329 23.4061 33.8085 23.4448 33.5239 23.4448C33.2996 23.4448 33.2272 23.5008 33.2272 23.5951C33.2272 23.7252 33.3569 23.7821 33.6014 23.7821C34.352 23.7821 35.5342 23.7252 35.962 23.7252C36.5306 23.7252 38.2362 23.8376 38.6841 23.8376C42.1395 23.8376 43.6977 21.7551 43.6977 19.7477C43.6977 17.5518 41.819 16.2181 40.2819 15.6909C41.3138 14.8689 42.1964 13.9499 42.1964 12.4094C42.1964 11.4162 41.5974 9.5945 38.1956 9.5945C37.5598 9.5945 36.8269 9.64861 35.9078 9.64861C35.5342 9.64861 34.352 9.5945 33.3569 9.5945C33.0756 9.5945 32.9436 9.63042 32.9436 9.76431C32.9436 9.89447 33.0551 9.93319 33.2636 9.93319C33.5239 9.93319 33.843 9.95091 33.9961 9.98963C34.6137 10.1203 34.7649 10.4179 34.8008 11.057C34.8377 11.6584 34.8377 12.1823 34.8377 15.0359V18.3384ZM37.0928 10.7197C37.0928 10.5126 37.1292 10.438 37.2607 10.3992C37.4483 10.3633 37.619 10.3633 37.8793 10.3633C39.4921 10.3633 40.225 12.0148 40.225 13.2702C40.225 14.1925 39.9418 14.8689 39.4557 15.2603C39.1347 15.5416 38.7228 15.6191 38.1042 15.6191C37.6731 15.6191 37.3928 15.6013 37.2211 15.5621C37.1469 15.5416 37.0928 15.5052 37.0928 15.3532V10.7197Z" fill="#007638"/>
<path d="M89.7335 18.9027C89.8264 18.9027 89.8824 18.94 89.9192 19.0329L91.406 22.9721C91.4988 23.1951 91.3687 23.3626 91.239 23.3994C91.0528 23.4186 90.9787 23.4554 90.9787 23.5669C90.9787 23.6971 91.2017 23.6971 91.5362 23.7157C93.0225 23.7531 94.3791 23.7531 95.0481 23.7531C95.7357 23.7531 95.9032 23.7157 95.9032 23.5669C95.9032 23.4368 95.8099 23.4186 95.6615 23.4186C95.4381 23.4186 95.1591 23.3994 94.8811 23.3444C94.4906 23.2329 93.9522 22.9735 93.2455 21.3085C92.0563 18.494 89.0832 10.9122 88.6368 9.89058C88.4516 9.46278 88.3401 9.29577 88.1726 9.29577C87.9865 9.29577 87.8754 9.5001 87.6524 10.0389L82.9882 21.7088C82.6164 22.6376 82.2642 23.2697 81.6535 23.3812C81.5061 23.4078 81.4408 23.4186 81.2738 23.4186C81.125 23.4186 81.0508 23.4554 81.0508 23.5669C81.0508 23.7157 81.1623 23.7531 81.4039 23.7531C82.3701 23.7531 82.9509 23.6971 83.1552 23.6971C83.7314 23.6971 84.5305 23.7531 85.1249 23.7531C85.3297 23.7531 85.4411 23.7157 85.4411 23.5669C85.4411 23.4554 85.3852 23.4186 85.1622 23.4186H84.8832C84.3075 23.4186 84.1405 23.1769 84.1405 22.8424C84.1405 22.6194 84.2329 22.173 84.4195 21.7088L85.4225 19.0515C85.4598 18.94 85.4971 18.9027 85.5895 18.9027H89.7335ZM85.9613 17.9734C85.8871 17.9734 85.8685 17.9179 85.8871 17.8437L87.5964 13.2719C87.6151 13.1977 87.6524 13.1049 87.7079 13.1049C87.7639 13.1049 87.7826 13.1977 87.8008 13.2719L89.4732 17.8624C89.4919 17.9179 89.4732 17.9734 89.3804 17.9734H85.9613Z" fill="#007638"/>
<path d="M68.592 9.58973C68.4507 9.58973 68.411 9.5916 68.2748 9.59393H68.2468H68.2384C68.1969 9.59393 68.1596 9.59533 68.1241 9.59673C68.119 9.59673 68.1143 9.59719 68.1087 9.59719C67.5424 9.61119 65.7374 9.59066 64.9369 9.59066C64.6882 9.59066 64.5077 9.60932 64.5077 9.75767C64.5077 9.86731 64.5735 9.92329 64.7708 9.92329C65.0013 9.92329 65.2989 9.92329 65.5461 10.0339C65.8988 10.1995 66.0551 10.5941 66.0957 11.4637L66.1526 19.0273C65.8741 18.7315 57.7297 9.62052 57.489 9.43718C57.1792 9.20252 56.8596 9.41945 56.8596 9.71196L56.7006 14.6234L56.4748 21.0478C56.4575 22.6241 56.3082 23.3458 55.7344 23.3458C55.1606 23.3458 54.9203 22.6493 54.3587 21.3258C53.1695 18.5113 50.1964 10.9296 49.7504 9.90742C49.5648 9.4801 49.4533 9.31262 49.2858 9.31262C49.0996 9.31262 48.9886 9.51695 48.7656 10.0562L44.1014 21.7256C43.7301 22.6549 43.3765 23.2871 42.5218 23.3981C42.3734 23.4167 42.1127 23.4354 41.9457 23.4354C41.7968 23.4354 41.7227 23.4723 41.7227 23.5842C41.7227 23.733 41.8342 23.7699 42.0763 23.7699C43.042 23.7699 44.0641 23.7144 44.2684 23.7144C44.8446 23.7144 45.6437 23.7699 46.238 23.7699C46.4428 23.7699 46.5543 23.733 46.5543 23.5842C46.5543 23.4723 46.4984 23.4354 46.2758 23.4354H45.9964C45.4207 23.4354 45.2537 23.1942 45.2537 22.8593C45.2537 22.6367 45.3461 22.1903 45.5322 21.7256L46.5357 19.0684C46.573 18.9573 46.6103 18.92 46.7027 18.92H50.8467C50.9396 18.92 50.9956 18.9573 51.0329 19.0502L52.5192 22.9404C52.612 23.1634 52.4534 23.3594 52.3228 23.3967C52.1371 23.4153 52.0625 23.4522 52.0625 23.5637C52.0625 23.6939 52.2859 23.6939 52.6204 23.7125C53.449 23.7335 54.2462 23.7335 54.905 23.7298C54.9735 23.7316 55.0174 23.7321 55.0267 23.7321C55.4228 23.7321 55.8193 23.727 56.1613 23.7209C56.3334 23.7209 56.4729 23.7186 56.5853 23.7125C56.8531 23.7074 57.0472 23.7027 57.113 23.7027C57.461 23.7027 58.1948 23.7582 59.3872 23.7582C59.6452 23.7582 59.8104 23.7204 59.8104 23.5735C59.8104 23.4629 59.6998 23.4256 59.4978 23.4256C59.2048 23.4256 58.8559 23.4074 58.5438 23.2964C58.1766 23.1676 57.9387 22.6885 57.9014 21.2503L57.8333 17.6184L57.7745 14.0053C58.0721 14.3556 65.4295 22.3512 66.4684 23.4583C66.6485 23.6617 66.8459 23.8641 67.0264 23.8641C67.1747 23.8641 67.241 23.699 67.241 23.2922L67.3072 19.0259V19.0264L67.4337 11.4623C67.4733 10.5932 67.6296 10.1981 67.9828 10.0325C68.2295 9.92235 68.5272 9.92235 68.7576 9.92235C68.9554 9.92235 69.0207 9.86591 69.0207 9.75628C69.0207 9.60839 68.8407 9.58973 68.592 9.58973ZM50.4941 17.9907H47.0745C47.0003 17.9907 46.9817 17.9352 47.0003 17.861L48.7096 13.2892C48.7283 13.215 48.7656 13.1222 48.8211 13.1222C48.8771 13.1222 48.8958 13.215 48.914 13.2892L50.5864 17.8792C50.6051 17.9352 50.5864 17.9907 50.4941 17.9907Z" fill="#007638"/>
</svg>
