<svg width="112" height="32" viewBox="0 0 112 32" fill="none" xmlns="http://www.w3.org/2000/svg">
<g clip-path="url(#clip0_1709_323)">
<path d="M24.5239 9.46704H17.5886V21.6531H24.5239V9.46704Z" fill="#FF5F00"/>
<path d="M18.029 15.5601C18.0279 14.3865 18.2999 13.228 18.8243 12.1723C19.3488 11.1167 20.112 10.1916 21.0562 9.46701C19.887 8.56836 18.4828 8.00951 17.004 7.85432C15.5253 7.69913 14.0318 7.95387 12.6941 8.58942C11.3565 9.22498 10.2287 10.2157 9.43964 11.4484C8.65061 12.681 8.23218 14.1059 8.23218 15.5601C8.23218 17.0142 8.65061 18.4391 9.43964 19.6718C10.2287 20.9044 11.3565 21.8951 12.6941 22.5307C14.0318 23.1663 15.5253 23.421 17.004 23.2658C18.4828 23.1106 19.887 22.5518 21.0562 21.6531C20.1121 20.9285 19.3488 20.0034 18.8244 18.9478C18.2999 17.8921 18.0279 16.7337 18.029 15.5601Z" fill="#EB001B"/>
<path d="M33.8801 15.5601C33.8801 17.0142 33.4617 18.4391 32.6728 19.6717C31.8838 20.9044 30.756 21.8951 29.4184 22.5307C28.0808 23.1663 26.5872 23.421 25.1085 23.2658C23.6298 23.1106 22.2256 22.5518 21.0564 21.6531C21.9998 20.9278 22.7624 20.0025 23.2868 18.9471C23.8112 17.8916 24.0836 16.7335 24.0836 15.5601C24.0836 14.3866 23.8112 13.2285 23.2868 12.1731C22.7624 11.1176 21.9998 10.1923 21.0564 9.46702C22.2256 8.56837 23.6298 8.00951 25.1085 7.85432C26.5872 7.69913 28.0808 7.95388 29.4184 8.58944C30.756 9.225 31.8838 10.2157 32.6728 11.4484C33.4617 12.6811 33.8801 14.1059 33.8801 15.5601Z" fill="#F79E1B"/>
<path d="M33.1237 20.3625V20.113H33.2266V20.0621H32.9646V20.113H33.0675V20.3625H33.1237ZM33.6324 20.3625V20.0616H33.5521L33.4597 20.2685L33.3673 20.0616H33.287V20.3625H33.3437V20.1355L33.4303 20.3312H33.4891L33.5758 20.1351V20.3625H33.6324Z" fill="#F79E1B"/>
<path d="M41.9527 23.3536H41.6592V20.7386V15.5082V10.2778V7.66284H41.9527V12.893V18.1234V23.3536Z" fill="black"/>
<path d="M50.0759 20.3627H49.2522V11.1201H50.0759V20.3627ZM56.0849 11.1201C56.8074 11.11 57.5265 11.2194 58.2118 11.4436C58.8072 11.6392 59.3545 11.954 59.8187 12.3678C60.2637 12.774 60.6118 13.271 60.8381 13.8235C61.3154 15.0595 61.3154 16.4232 60.8381 17.6592C60.6118 18.2118 60.2638 18.7088 59.8187 19.1149C59.3545 19.5288 58.8073 19.8436 58.2118 20.0392C57.5265 20.2635 56.8074 20.3728 56.0849 20.3627H52.6347V11.1201H56.0849ZM53.4584 11.8859V19.5969H56.0849C56.7041 19.6076 57.3206 19.5149 57.908 19.3228C58.4024 19.1591 58.8557 18.8947 59.238 18.5472C59.6011 18.2082 59.8805 17.7927 60.055 17.3324C60.424 16.3024 60.424 15.1803 60.055 14.1503C59.88 13.6893 59.6007 13.2729 59.238 12.9323C58.8568 12.5833 58.4032 12.3187 57.908 12.1566C57.3202 11.9668 56.7038 11.8753 56.0849 11.8859L53.4584 11.8859ZM70.7699 11.0145C71.1655 11.0134 71.5598 11.0577 71.9449 11.1465C72.3135 11.2312 72.6704 11.3586 73.0081 11.5261C73.3324 11.6868 73.6342 11.8876 73.9062 12.1236C74.1719 12.3545 74.4026 12.6213 74.5914 12.9158L73.9027 13.3647C73.7409 13.1227 73.5467 12.9029 73.3254 12.7112C73.1019 12.517 72.8547 12.3507 72.5895 12.216C72.3156 12.0773 72.0254 11.972 71.7254 11.9024C71.4124 11.8293 71.0917 11.7927 70.7699 11.7935C70.2329 11.7889 69.6999 11.8852 69.2001 12.0773C68.7277 12.2593 68.2982 12.5333 67.9376 12.8828C67.5737 13.2393 67.2868 13.6636 67.0937 14.1305C66.684 15.1671 66.684 16.3157 67.0937 17.3522C67.2868 17.8192 67.5737 18.2435 67.9376 18.6C68.2982 18.9494 68.7277 19.2235 69.2001 19.4054C69.6999 19.5976 70.2328 19.694 70.7699 19.6893C71.0903 19.6902 71.4098 19.6547 71.7219 19.5837C72.021 19.5158 72.3102 19.4116 72.5828 19.2733C72.8481 19.1387 73.0953 18.9724 73.3188 18.7783C73.5412 18.585 73.7354 18.3629 73.8961 18.118L74.5712 18.6C74.3746 18.8888 74.1396 19.1507 73.8724 19.379C73.6013 19.61 73.3019 19.8074 72.9812 19.9666C72.6479 20.1319 72.2954 20.2571 71.9313 20.3395C70.9043 20.5682 69.8309 20.4911 68.849 20.1184C68.2758 19.897 67.7536 19.5659 67.313 19.1446C66.8746 18.7195 66.529 18.2119 66.2969 17.6526C65.8064 16.4247 65.8064 15.0613 66.2969 13.8335C66.5284 13.2728 66.8741 12.7641 67.313 12.3381C67.7536 11.9168 68.2758 11.5857 68.849 11.3643C69.4602 11.1276 70.1125 11.0088 70.7699 11.0145H70.7699ZM77.1233 15.2264C77.244 15.0304 77.3929 14.8526 77.5656 14.6983C77.7304 14.5513 77.9156 14.428 78.1158 14.3318C78.3134 14.2374 78.522 14.1665 78.7369 14.1206C78.9498 14.0747 79.1672 14.0515 79.3852 14.0513C79.7552 14.0471 80.1231 14.1063 80.4723 14.2262C80.7864 14.3344 81.0747 14.504 81.3196 14.7246C81.5591 14.945 81.7459 15.2144 81.8666 15.5135C81.9987 15.8448 82.0641 16.1979 82.059 16.5533V20.3627H81.2893V16.7845C81.2933 16.4974 81.2477 16.2116 81.1543 15.9394C81.0717 15.7006 80.9356 15.483 80.7558 15.3024C80.5745 15.1249 80.3556 14.9886 80.1145 14.9029C79.8372 14.8064 79.5444 14.7594 79.2502 14.7643C78.9651 14.7621 78.6823 14.8125 78.4164 14.9128C78.1644 15.0075 77.9347 15.1513 77.7412 15.3354C77.5473 15.5215 77.3935 15.7437 77.2889 15.9889C77.1761 16.2533 77.1198 16.5375 77.1233 16.824V20.3627H76.3536V10.856H77.1233L77.1233 15.2264ZM86.6367 14.0513C87.0419 14.0477 87.4432 14.1276 87.8148 14.2857C88.1706 14.4374 88.4903 14.66 88.7533 14.9392C89.0248 15.2318 89.2368 15.5724 89.3778 15.9427C89.5345 16.3512 89.6145 16.784 89.6141 17.2202C89.6141 17.2774 89.6131 17.3314 89.6109 17.3819C89.6086 17.4325 89.6052 17.4821 89.6008 17.5305H84.2736C84.2934 17.864 84.3769 18.1909 84.52 18.4943C84.6491 18.7652 84.8315 19.0086 85.0568 19.2106C85.2775 19.4066 85.5356 19.5581 85.8162 19.6563C86.1098 19.7588 86.4194 19.8101 86.7311 19.8081C87.1425 19.815 87.5504 19.7339 87.9263 19.5704C88.2797 19.4105 88.6018 19.1916 88.8782 18.9234L89.2901 19.4384C89.1027 19.6243 88.8956 19.7903 88.6724 19.9336C88.471 20.0617 88.2558 20.1679 88.0308 20.2504C87.8159 20.3288 87.5929 20.3841 87.3658 20.4154C87.1399 20.4463 86.9121 20.4617 86.684 20.4617C86.2448 20.4662 85.809 20.3865 85.4011 20.2273C85.021 20.0786 84.6763 19.855 84.3884 19.5704C84.0998 19.2812 83.8746 18.9375 83.7266 18.5603C83.5647 18.1452 83.4845 17.704 83.4903 17.2597C83.4856 16.8185 83.567 16.3805 83.73 15.9691C83.8797 15.5908 84.1045 15.2452 84.3916 14.9524C84.6751 14.6671 85.0151 14.4413 85.391 14.289C85.7856 14.1286 86.2093 14.0478 86.6367 14.0513H86.6367ZM86.6232 14.718C86.3192 14.7144 86.0175 14.7693 85.7352 14.8798C85.473 14.9842 85.2336 15.1366 85.0298 15.3288C84.8234 15.5253 84.6553 15.7568 84.5335 16.012C84.4021 16.287 84.3188 16.5816 84.2871 16.8835H88.8311C88.8085 16.5795 88.7331 16.2814 88.6081 16.0021C88.4946 15.7472 88.3331 15.5155 88.1321 15.3189C87.9337 15.1262 87.6982 14.9739 87.4392 14.8708C87.1802 14.7676 86.9028 14.7157 86.6232 14.718V14.718ZM94.0431 14.0513C94.4934 14.047 94.9399 14.1312 95.3563 14.2988C95.7507 14.458 96.1029 14.703 96.386 15.0152L95.8863 15.5235C95.6464 15.2866 95.3637 15.0953 95.0525 14.9591C94.7277 14.8215 94.3768 14.7529 94.0229 14.7577C93.6902 14.755 93.3604 14.819 93.054 14.9458C92.761 15.067 92.4959 15.2443 92.2742 15.4674C92.0499 15.6953 91.8743 15.9646 91.7575 16.2596C91.5101 16.9044 91.5101 17.6151 91.7575 18.2599C91.872 18.5522 92.0459 18.8188 92.2688 19.0435C92.4916 19.2681 92.7588 19.4463 93.054 19.5671C93.3604 19.694 93.6902 19.758 94.0229 19.7553C94.3821 19.7592 94.738 19.6871 95.0661 19.544C95.3779 19.4069 95.6624 19.217 95.9065 18.9829L96.386 19.4979C96.1003 19.8087 95.7474 20.0533 95.3529 20.2141C94.5111 20.5431 93.5724 20.5442 92.7298 20.2174C92.3439 20.064 91.994 19.8353 91.7015 19.5453C91.409 19.2553 91.18 18.9101 91.0285 18.5307C90.7088 17.7111 90.7088 16.8052 91.0285 15.9856C91.1792 15.6053 91.4079 15.2593 91.7005 14.9686C91.993 14.678 92.3433 14.4489 92.7298 14.2956C93.1465 14.1293 93.593 14.0462 94.0431 14.0513H94.0431ZM98.7016 16.7713H99.7347L102.408 14.1503H103.381L100.356 17.0816L103.435 20.3627H102.456L99.7347 17.4513H98.7016V20.3627H97.9319V10.856H98.7016V16.7713Z" fill="black"/>
</g>
<defs>
<clipPath id="clip0_1709_323">
<rect width="111" height="31" fill="white" transform="translate(0.306641 0.0600586)"/>
</clipPath>
</defs>
</svg>
