<svg width="81" height="48" viewBox="0 0 81 48" fill="none" xmlns="http://www.w3.org/2000/svg">
<rect x="0.5" y="0.220825" width="80" height="47.6784" rx="4" fill="black"/>
<path fill-rule="evenodd" clip-rule="evenodd" d="M61.3023 39.9111V36.5208H60.5532V38.4919C60.2773 38.1371 59.883 37.94 59.3311 37.94C58.2667 37.94 57.4782 38.7679 57.4782 39.9111C57.4782 41.0544 58.2667 41.8823 59.3311 41.8823C59.883 41.8823 60.2773 41.6852 60.5532 41.3304V41.8034H61.3023V39.9111ZM36.8206 38.0188H38.2004V38.689H36.8206V40.5025C36.8206 40.8967 37.0177 41.1332 37.4119 41.1332C37.609 41.1332 37.885 41.0938 38.1215 40.9361L38.3581 41.5669C38.0821 41.7246 37.6879 41.8429 37.3331 41.8429C36.3869 41.8429 36.0715 41.3304 36.0715 40.4631V38.689H35.2831V38.0188H36.0715V36.8756H36.8206V38.0188ZM25.9004 39.4381V41.8034H25.0725V39.6352C25.0725 39.0044 24.7571 38.6496 24.2052 38.6496C23.6533 38.6496 23.259 38.965 23.259 39.6352V41.8034H22.51V39.6352C22.51 39.0044 22.1946 38.6496 21.6427 38.6496C21.0908 38.6496 20.6965 38.965 20.6965 39.6352V41.8034H19.9475V38.0188H20.6965V38.4919C21.0119 38.0583 21.4456 37.94 21.8398 37.94C22.4312 37.94 22.8254 38.1765 23.1014 38.6102C23.4562 38.0977 23.9687 37.94 24.4417 37.94C25.3485 37.94 25.9004 38.5313 25.9004 39.4381ZM45.1782 37.9006C44.7052 37.9006 44.3504 38.1371 44.1532 38.4525V38.0188H43.4042V41.8034H44.1532V39.6746C44.1532 39.0438 44.4686 38.6496 44.9811 38.6496C45.1388 38.6496 45.3359 38.689 45.4936 38.7284L45.7302 38.0188C45.5725 37.94 45.3359 37.9006 45.1782 37.9006ZM33.0754 37.9006C33.6667 37.9006 34.2186 38.0188 34.6129 38.2948L34.2186 38.8861C33.9821 38.7679 33.509 38.5707 33.036 38.5707C32.6023 38.5707 32.2869 38.7679 32.2869 39.0438C32.2869 39.2804 32.6023 39.3986 32.9571 39.4381L33.3513 39.4775C34.1792 39.5957 34.6523 39.9111 34.6523 40.5813C34.6523 41.2909 34.061 41.8034 32.9571 41.8034C32.5629 41.8034 31.8927 41.7246 31.3408 41.3304L31.735 40.739C32.011 40.9361 32.4052 41.1332 32.9965 41.1332C33.5879 41.1332 33.9033 40.9361 33.9033 40.6602C33.9033 40.4631 33.6273 40.3054 33.1936 40.2265L32.7994 40.1871C31.9715 40.0688 31.5379 39.714 31.5379 39.0832C31.5379 38.3342 32.1292 37.9006 33.0754 37.9006ZM46.0456 39.9111C46.0456 41.0544 46.7946 41.8823 48.0167 41.8823C48.5686 41.8823 48.9629 41.764 49.3571 41.4486L48.9629 40.8573C48.6475 41.0938 48.3321 41.2121 47.9773 41.2121C47.3071 41.2121 46.7946 40.6996 46.7946 39.9506C46.7946 39.2015 47.3071 38.689 47.9773 38.689C48.3321 38.689 48.6475 38.8073 48.9629 39.0438L49.3571 38.4525C48.9629 38.1371 48.5686 38.0188 48.0167 38.0188C46.7946 37.9006 46.0456 38.7679 46.0456 39.9111ZM38.8706 39.8717C38.8706 38.689 39.6196 37.9006 40.7234 37.9006C41.7879 37.9006 42.4975 38.7284 42.4975 39.8717V40.1871H39.6984C39.7773 40.8573 40.3292 41.1727 40.8417 41.1727C41.2359 41.1727 41.6302 41.015 41.9456 40.7784L42.3398 41.3304C41.9061 41.6852 41.3542 41.8429 40.8023 41.8429C39.659 41.8429 38.8706 41.0544 38.8706 39.8717ZM40.7234 38.6102C41.2754 38.6102 41.6696 38.965 41.709 39.5563H39.6984C39.7379 39.0044 40.1321 38.6102 40.7234 38.6102ZM30.5129 38.0188V39.9111V41.8034H29.7638V41.3304C29.4879 41.6852 29.0937 41.8823 28.5417 41.8823C27.4773 41.8823 26.6888 41.0544 26.6888 39.9111C26.6888 38.7679 27.4773 37.94 28.5417 37.94C29.0937 37.94 29.4879 38.1371 29.7638 38.4919V38.0188H30.5129ZM27.4379 39.9111C27.4379 39.2015 27.8715 38.6496 28.6206 38.6496C29.3302 38.6496 29.7638 39.2015 29.7638 39.9111C29.7638 40.6602 29.2908 41.1727 28.6206 41.1727C27.911 41.1727 27.4379 40.6207 27.4379 39.9111ZM55.5465 38.4525C55.7436 38.1371 56.0984 37.9006 56.5715 37.9006C56.7686 37.9006 57.0052 37.94 57.1234 38.0188L56.8869 38.7284C56.7292 38.689 56.5321 38.6496 56.3744 38.6496C55.8619 38.6496 55.5465 39.0438 55.5465 39.6746V41.8034H54.7975V38.0188H55.5465V38.4525ZM62.6821 41.2515C62.7215 41.2515 62.8003 41.2515 62.8398 41.2909C62.8792 41.2909 62.9186 41.3304 62.958 41.3698C62.9975 41.4092 63.0369 41.4486 63.0369 41.4881C63.0763 41.5275 63.0763 41.5669 63.0763 41.6457C63.0763 41.6852 63.0763 41.764 63.0369 41.8034C63.0172 41.8232 63.0073 41.8429 62.9975 41.8626C62.9876 41.8823 62.9777 41.902 62.958 41.9217C62.9186 41.9611 62.8792 42.0006 62.8398 42.0006C62.8003 42.04 62.7609 42.04 62.6821 42.04C62.6427 42.04 62.5638 42.04 62.5244 42.0006C62.5047 41.9808 62.485 41.971 62.4652 41.9611C62.4455 41.9513 62.4258 41.9414 62.4061 41.9217C62.3667 41.8823 62.3273 41.8429 62.3273 41.8034C62.2878 41.764 62.2878 41.7246 62.2878 41.6457C62.2878 41.6063 62.2878 41.5275 62.3273 41.4881C62.347 41.4683 62.3568 41.4486 62.3667 41.4289C62.3765 41.4092 62.3864 41.3895 62.4061 41.3698C62.4455 41.3304 62.485 41.2909 62.5244 41.2909C62.5638 41.2515 62.6032 41.2515 62.6821 41.2515ZM62.8792 41.8034C62.8792 41.8429 62.8398 41.8823 62.8003 41.8823C62.7609 41.9217 62.7215 41.9217 62.6821 41.9217C62.6624 41.9217 62.6427 41.9119 62.6229 41.902C62.6032 41.8921 62.5835 41.8823 62.5638 41.8823L62.485 41.8034C62.4455 41.8034 62.4061 41.764 62.4061 41.7246C62.3667 41.6852 62.3667 41.6457 62.3667 41.6063C62.3667 41.5866 62.3765 41.5669 62.3864 41.5472C62.3963 41.5275 62.4061 41.5078 62.4061 41.4881L62.485 41.4092C62.485 41.3698 62.5244 41.3304 62.5638 41.3304C62.6032 41.2909 62.6427 41.2909 62.6821 41.2909C62.7018 41.2909 62.7215 41.3008 62.7412 41.3106C62.7609 41.3205 62.7806 41.3304 62.8003 41.3304L62.8792 41.4092C62.9186 41.4092 62.958 41.4486 62.958 41.4881C62.9975 41.5275 62.9975 41.5669 62.9975 41.6063C62.9975 41.626 62.9876 41.6457 62.9777 41.6655C62.9679 41.6852 62.958 41.7049 62.958 41.7246L62.8792 41.8034ZM62.6821 41.4486C62.7215 41.4486 62.7609 41.4486 62.8003 41.4881L62.8004 41.4881C62.823 41.5107 62.8326 41.5204 62.8367 41.5319C62.8398 41.5405 62.8398 41.5501 62.8398 41.5669C62.8398 41.5837 62.8398 41.5933 62.8367 41.6019C62.8326 41.6134 62.823 41.6231 62.8004 41.6457L62.8003 41.6457C62.8003 41.6457 62.7609 41.6852 62.7215 41.6852L62.8398 41.8034H62.7609L62.6426 41.6852H62.6032V41.8034H62.5244V41.4486H62.6821ZM62.6032 41.5669V41.4881H62.6821H62.7215V41.5275V41.5669H62.6821H62.6032ZM53.6936 39.9111V38.0188H52.9446V38.4919C52.6686 38.1371 52.2744 37.94 51.7225 37.94C50.658 37.94 49.8696 38.7679 49.8696 39.9111C49.8696 41.0544 50.658 41.8823 51.7225 41.8823C52.2744 41.8823 52.6686 41.6852 52.9446 41.3304V41.8034H53.6936V39.9111ZM51.8013 38.6496C51.0523 38.6496 50.6186 39.2015 50.6186 39.9111C50.6186 40.6207 51.0917 41.1727 51.8013 41.1727C52.4715 41.1727 52.9446 40.6602 52.9446 39.9111C52.9446 39.2015 52.5109 38.6496 51.8013 38.6496ZM59.41 38.6496C58.6609 38.6496 58.2273 39.2015 58.2273 39.9111C58.2273 40.6207 58.7003 41.1727 59.41 41.1727C60.0802 41.1727 60.5532 40.6602 60.5532 39.9111C60.5532 39.2015 60.1196 38.6496 59.41 38.6496Z" fill="white"/>
<rect x="33.7061" y="9.27942" width="13.6798" height="22.3134" fill="#F26522"/>
<path d="M35.1253 20.4362C35.1253 15.9025 37.2541 11.8814 40.5262 9.27947C38.1214 7.38716 35.0859 6.2439 31.7743 6.2439C23.9291 6.2439 17.582 12.591 17.582 20.4362C17.582 28.2814 23.9291 34.6285 31.7743 34.6285C35.0859 34.6285 38.1214 33.4852 40.5262 31.5929C37.2541 29.0304 35.1253 24.9698 35.1253 20.4362Z" fill="#E52423"/>
<path fill-rule="evenodd" clip-rule="evenodd" d="M62.1695 28.8578V29.715H62.0907V28.8578H61.8936V28.715H62.3666V28.8578H62.1695ZM63.0762 28.715V29.715H62.9974V28.9293L62.8397 29.5721H62.7214L62.5637 28.9293V29.715H62.4455V28.715H62.6032L62.7609 29.4293L62.9186 28.715H63.0762Z" fill="#F99F1C"/>
<path d="M63.5099 20.4362C63.5099 28.2814 57.1628 34.6285 49.3176 34.6285C46.0061 34.6285 42.9705 33.4852 40.5657 31.5929C43.8772 28.991 45.9666 24.9698 45.9666 20.4362C45.9666 15.9025 43.8378 11.8814 40.5657 9.27947C42.9705 7.38716 46.0061 6.2439 49.3176 6.2439C57.1628 6.2439 63.5099 12.6304 63.5099 20.4362Z" fill="#F99F1C"/>
</svg>
