<svg width="80" height="48" viewBox="0 0 80 48" fill="none" xmlns="http://www.w3.org/2000/svg">
<rect y="0.220825" width="80" height="47.6784" rx="4" fill="black"/>
<path fill-rule="evenodd" clip-rule="evenodd" d="M47.5177 38.8058H46.1738V40.5054C46.1738 40.9007 46.2924 41.1378 46.7272 41.1378C46.9248 41.1378 47.2015 41.0588 47.4387 40.9402L47.6758 41.6517C47.3991 41.8493 47.0039 41.9283 46.6481 41.9283C45.66 41.9283 45.3438 41.4145 45.3438 40.5449V38.8058H44.5928V38.0548H45.3438V36.9086H46.1738V38.0548H47.5177V38.8058ZM30.996 39.4382V41.8098H30.1659V39.7149C30.1659 39.0825 29.8892 38.7268 29.3359 38.7268C28.8221 38.7268 28.4268 39.043 28.4268 39.7149V41.8098H27.5968V39.7149C27.5968 39.0825 27.3201 38.7268 26.7667 38.7268C26.2134 38.7268 25.8576 39.043 25.8576 39.7149V41.8098H25.0276V38.0548H25.7786V38.4896C26.0948 38.0548 26.49 37.9362 26.8853 37.9362C27.4782 37.9362 27.8734 38.1734 28.1501 38.6082C28.5058 38.0943 29.0197 37.9362 29.494 37.9362C30.4426 37.9362 30.996 38.5291 30.996 39.4382ZM35.6205 38.0548V39.952V41.8493H34.7904V41.375C34.5533 41.7307 34.158 41.9283 33.6047 41.9283C32.5375 41.9283 31.7074 41.0983 31.7074 39.952C31.7074 38.8058 32.5375 37.9758 33.6047 37.9758C34.1185 37.9758 34.5138 38.1734 34.7904 38.5291V38.0548H35.6205ZM32.577 39.952C32.577 39.2801 33.0118 38.7268 33.7232 38.7268C34.3952 38.7268 34.8695 39.2406 34.8695 39.952C34.8695 40.624 34.3952 41.1773 33.7232 41.1773C33.0118 41.1378 32.577 40.5845 32.577 39.952ZM53.9999 38.0943C53.7628 37.9758 53.4861 37.9362 53.2094 37.9362C52.8932 37.9362 52.656 38.0153 52.4189 38.0943C52.1817 38.2129 51.9841 38.371 51.7865 38.5291C51.5889 38.7268 51.4703 38.9244 51.3517 39.1615C51.2331 39.3987 51.1936 39.6754 51.1936 39.952C51.1936 40.2287 51.2331 40.5054 51.3517 40.7426C51.4703 40.9797 51.5889 41.2169 51.7865 41.375C51.9446 41.5726 52.1817 41.6912 52.4189 41.8098C52.656 41.9283 52.9327 41.9679 53.2094 41.9679C53.4861 41.9679 53.7628 41.9283 53.9999 41.8098C54.2371 41.6912 54.4347 41.5331 54.6323 41.375C54.83 41.1773 54.9485 40.9797 55.0671 40.7426C55.1857 40.5054 55.2252 40.2287 55.2252 39.952C55.2252 39.6754 55.1857 39.3987 55.0671 39.1615C54.9485 38.9244 54.83 38.6872 54.6323 38.5291C54.4742 38.3315 54.2371 38.2129 53.9999 38.0943ZM53.2094 38.7268C53.0513 38.7268 52.8932 38.7663 52.7351 38.8058C52.577 38.8453 52.4584 38.9639 52.3794 39.043C52.2608 39.1615 52.1817 39.2801 52.1422 39.4382C52.0632 39.5963 52.0632 39.7544 52.0632 39.9125C52.0632 40.1102 52.1027 40.2683 52.1422 40.3868C52.2213 40.5449 52.3003 40.6635 52.3794 40.7821C52.4979 40.9007 52.6165 40.9797 52.7351 41.0192C52.8932 41.0588 53.0513 41.0983 53.2094 41.0983C53.3675 41.0983 53.5256 41.0588 53.6837 41.0192C53.7997 40.9902 53.8944 40.9187 53.9835 40.8514C54.0158 40.827 54.0474 40.8031 54.079 40.7821C54.1975 40.6635 54.2766 40.5449 54.3161 40.3868C54.3952 40.2287 54.3952 40.0706 54.3952 39.9125C54.3952 39.7149 54.3557 39.5568 54.3161 39.4382C54.2371 39.2801 54.158 39.1615 54.079 39.043C53.9604 38.9244 53.8418 38.8453 53.6837 38.8058C53.5256 38.7663 53.3675 38.7268 53.2094 38.7268ZM38.3082 37.9758C39.3359 37.9758 40.0869 38.7663 40.0869 39.952C40.0869 40.0311 40.0869 40.1497 40.0474 40.3078H37.241C37.3596 40.9797 37.8734 41.2169 38.3873 41.2169C38.7825 41.2169 39.1778 41.0588 39.494 40.8216L39.8892 41.4145C39.4545 41.7702 38.9011 41.9283 38.3477 41.9283C37.2015 41.9283 36.411 41.1378 36.411 39.952C36.411 38.7663 37.2015 37.9758 38.3082 37.9758ZM37.2806 39.5963C37.3596 39.043 37.7153 38.6872 38.2687 38.6872C38.7825 38.6872 39.1383 39.0034 39.2173 39.5963H37.2806ZM42.3794 38.6872C42.8537 38.6872 43.328 38.8453 43.5651 39.0034L43.9209 38.3315C43.5256 38.0548 42.9723 37.9362 42.3794 37.9362C41.4307 37.9362 40.7983 38.4105 40.7983 39.1615C40.7983 39.7544 41.2726 40.1497 42.1027 40.2683L42.4979 40.3078C42.9723 40.3868 43.1699 40.5054 43.1699 40.703C43.1699 41.0192 42.8537 41.1773 42.3003 41.1773C41.7074 41.1773 41.3122 40.9797 41.0355 40.7821L40.6402 41.4145C41.075 41.7307 41.6284 41.8888 42.2608 41.8888C43.3675 41.8888 43.9999 41.375 43.9999 40.6635C43.9999 39.9916 43.5256 39.6358 42.6956 39.5173L42.3003 39.4777C41.9446 39.4382 41.6679 39.3592 41.6679 39.122C41.6679 38.8453 41.9446 38.6872 42.3794 38.6872ZM50.9564 38.0943C50.7588 38.0153 50.5217 37.9758 50.3636 37.9758C49.8892 37.9758 49.573 38.1734 49.4149 38.5291V38.0548H48.5849V41.9283H49.4149V39.7939C49.4149 39.1615 49.6521 38.8058 50.2055 38.8058C50.3636 38.8058 50.5612 38.8058 50.7193 38.8849L50.9564 38.0943ZM56.0157 41.2959C56.0553 41.2959 56.1343 41.2959 56.1738 41.3354C56.2134 41.3354 56.2529 41.375 56.2924 41.4145C56.3319 41.454 56.3715 41.4935 56.3715 41.5331C56.411 41.5726 56.411 41.6121 56.411 41.6912C56.411 41.7307 56.411 41.8098 56.3715 41.8493C56.3517 41.869 56.3418 41.8888 56.3319 41.9086C56.3221 41.9283 56.3122 41.9481 56.2924 41.9679C56.2529 42.0074 56.2134 42.0469 56.1738 42.0469C56.1343 42.0864 56.0948 42.0864 56.0157 42.0864C55.9762 42.0864 55.8972 42.0864 55.8576 42.0469C55.8379 42.0271 55.8181 42.0173 55.7983 42.0074C55.7786 41.9975 55.7588 41.9876 55.7391 41.9679C55.6995 41.9283 55.66 41.8888 55.66 41.8493C55.6205 41.8098 55.6205 41.7702 55.6205 41.6912C55.6205 41.6517 55.6205 41.5726 55.66 41.5331C55.6798 41.5133 55.6896 41.4935 55.6995 41.4738C55.7094 41.454 55.7193 41.4343 55.7391 41.4145C55.7786 41.375 55.8181 41.3354 55.8576 41.3354C55.9344 41.2971 55.9739 41.296 56.0123 41.2959C55.9739 41.296 55.9355 41.2971 55.8972 41.3354C55.8576 41.3354 55.8181 41.375 55.8181 41.4145L55.739 41.4935C55.739 41.5133 55.7292 41.5331 55.7193 41.5528C55.7094 41.5726 55.6995 41.5924 55.6995 41.6121C55.6995 41.6517 55.6995 41.6912 55.739 41.7307C55.739 41.7702 55.7786 41.8098 55.8181 41.8098L55.8972 41.8888C55.9367 41.9283 55.9762 41.9283 56.0157 41.9283C56.0553 41.9283 56.0948 41.9283 56.1343 41.8888C56.1601 41.8888 56.1859 41.872 56.2007 41.8493H56.2134L56.2054 41.8413C56.2104 41.8313 56.2134 41.8205 56.2134 41.8098L56.2924 41.7307C56.2924 41.7109 56.3023 41.6912 56.3122 41.6714C56.3221 41.6517 56.3319 41.6319 56.3319 41.6121C56.3319 41.5726 56.3319 41.5331 56.2924 41.4935C56.2924 41.454 56.2529 41.4145 56.2134 41.4145L56.1343 41.3354C56.1145 41.3354 56.0948 41.3256 56.075 41.3157C56.0553 41.3058 56.0355 41.2959 56.0157 41.2959ZM56.2054 41.8413L56.0948 41.7307C56.1343 41.7307 56.1738 41.6912 56.1738 41.6912C56.1966 41.6684 56.2062 41.6588 56.2103 41.6472C56.2134 41.6386 56.2134 41.6289 56.2134 41.6121C56.2134 41.5953 56.2134 41.5857 56.2103 41.5771C56.2062 41.5655 56.1966 41.5558 56.1738 41.5331C56.1343 41.4935 56.0948 41.4935 56.0553 41.4935H55.8972V41.8493H55.9762V41.7307H56.0157L56.1343 41.8493H56.2007C56.2024 41.8467 56.204 41.844 56.2054 41.8413ZM55.9762 41.6121V41.5331H56.0553H56.0948V41.5726V41.6121H56.0553H55.9762Z" fill="white"/>
<rect x="33.8813" y="9.2406" width="12.4506" height="22.3715" fill="#7574B6"/>
<path d="M34.6719 20.4264C34.6719 15.8809 36.8063 11.8493 40.087 9.24062C37.6759 7.34339 34.6324 6.19714 31.3123 6.19714C23.4466 6.19714 17.083 12.5608 17.083 20.4264C17.083 28.292 23.4466 34.6556 31.3123 34.6556C34.6324 34.6556 37.6759 33.5094 40.087 31.6122C36.8063 29.043 34.6719 24.9718 34.6719 20.4264Z" fill="#DC1F26"/>
<path fill-rule="evenodd" clip-rule="evenodd" d="M61.7864 28.8301V29.6873H61.7074V28.8301H61.5098V28.6873H61.9841V28.8301H61.7864ZM62.6955 28.6873V29.6873H62.6165V28.9015L62.4584 29.5444H62.3398L62.1817 28.9015V29.6873H62.0631V28.6873H62.2212L62.3793 29.4015L62.5374 28.6873H62.6955Z" fill="#00A1DE"/>
<path d="M63.1304 20.4264C63.1304 28.292 56.7668 34.6556 48.9012 34.6556C45.581 34.6556 42.5375 33.5094 40.1265 31.6122C43.4466 29.0035 45.5415 24.9718 45.5415 20.4264C45.5415 15.8809 43.4071 11.8493 40.1265 9.24062C42.5375 7.34339 45.581 6.19714 48.9012 6.19714C56.7668 6.19714 63.1304 12.6003 63.1304 20.4264Z" fill="#00A1DE"/>
</svg>
