<svg width="181" height="49" viewBox="0 0 181 49" fill="none" xmlns="http://www.w3.org/2000/svg">
<g clip-path="url(#clip0_705_666)">
<path d="M67.8328 10.6167H57.8851C57.2044 10.6167 56.6255 11.1112 56.5193 11.7832L52.496 37.2916C52.416 37.7949 52.8059 38.2487 53.3164 38.2487H58.0655C58.7462 38.2487 59.3251 37.7542 59.4313 37.0807L60.5164 30.2007C60.6211 29.5272 61.2015 29.0327 61.8808 29.0327H65.0299C71.5826 29.0327 75.3644 25.8618 76.352 19.5782C76.7971 16.8291 76.3709 14.6691 75.0837 13.1563C73.6699 11.4952 71.1622 10.6167 67.8328 10.6167ZM68.9804 19.9331C68.4364 23.5025 65.7091 23.5025 63.072 23.5025H61.5709L62.624 16.8363C62.6866 16.4334 63.0357 16.1367 63.4429 16.1367H64.1309C65.9273 16.1367 67.6219 16.1367 68.4975 17.1607C69.0197 17.7716 69.1797 18.6792 68.9804 19.9331Z" fill="#253B80"/>
<path d="M97.568 19.8181H92.8043C92.3985 19.8181 92.048 20.1148 91.9854 20.5178L91.7745 21.8501L91.4414 21.3672C90.4102 19.8705 88.1105 19.3701 85.8152 19.3701C80.5512 19.3701 76.0552 23.357 75.1796 28.9498C74.7243 31.7396 75.3716 34.4072 76.9542 36.2676C78.4058 37.9781 80.4829 38.6908 82.9542 38.6908C87.1956 38.6908 89.5476 35.9636 89.5476 35.9636L89.3352 37.2872C89.2552 37.7934 89.6451 38.2472 90.1527 38.2472H94.4436C95.1258 38.2472 95.7018 37.7527 95.8094 37.0792L98.384 20.7752C98.4654 20.2734 98.0771 19.8181 97.568 19.8181ZM90.928 29.0894C90.4683 31.8108 88.3083 33.6378 85.5534 33.6378C84.1702 33.6378 83.0647 33.1941 82.3549 32.3534C81.6509 31.5185 81.3832 30.3301 81.6072 29.0065C82.0363 26.3083 84.2327 24.4218 86.9454 24.4218C88.2982 24.4218 89.3978 24.8712 90.1221 25.7192C90.848 26.5759 91.136 27.7716 90.928 29.0894Z" fill="#253B80"/>
<path d="M122.938 19.8181H118.151C117.695 19.8181 117.266 20.045 117.007 20.4247L110.404 30.1498L107.606 20.8043C107.43 20.2196 106.89 19.8181 106.279 19.8181H101.575C101.004 19.8181 100.607 20.3767 100.788 20.9148L106.061 36.3883L101.104 43.3861C100.714 43.9374 101.107 44.6952 101.78 44.6952H106.562C107.015 44.6952 107.44 44.4741 107.698 44.1018L123.619 21.1199C124 20.5701 123.609 19.8181 122.938 19.8181Z" fill="#253B80"/>
<path d="M138.787 10.6167H128.838C128.159 10.6167 127.58 11.1112 127.473 11.7832L123.45 37.2916C123.37 37.7949 123.76 38.2487 124.268 38.2487H129.373C129.847 38.2487 130.253 37.9025 130.327 37.4312L131.469 30.2007C131.574 29.5272 132.154 29.0327 132.833 29.0327H135.981C142.535 29.0327 146.316 25.8618 147.305 19.5782C147.751 16.8291 147.322 14.6691 146.035 13.1563C144.622 11.4952 142.116 10.6167 138.787 10.6167ZM139.934 19.9331C139.392 23.5025 136.665 23.5025 134.026 23.5025H132.527L133.581 16.8363C133.644 16.4334 133.99 16.1367 134.399 16.1367H135.087C136.881 16.1367 138.577 16.1367 139.453 17.1607C139.975 17.7716 140.134 18.6792 139.934 19.9331Z" fill="#179BD7"/>
<path d="M168.521 19.8181H163.76C163.351 19.8181 163.004 20.1148 162.943 20.5178L162.732 21.8501L162.397 21.3672C161.366 19.8705 159.068 19.3701 156.772 19.3701C151.508 19.3701 147.014 23.357 146.138 28.9498C145.684 31.7396 146.329 34.4072 147.911 36.2676C149.366 37.9781 151.44 38.6908 153.911 38.6908C158.153 38.6908 160.505 35.9636 160.505 35.9636L160.292 37.2872C160.212 37.7934 160.602 38.2472 161.113 38.2472H165.402C166.081 38.2472 166.66 37.7527 166.767 37.0792L169.343 20.7752C169.421 20.2734 169.031 19.8181 168.521 19.8181ZM161.881 29.0894C161.424 31.8108 159.261 33.6378 156.506 33.6378C155.126 33.6378 154.017 33.1941 153.308 32.3534C152.604 31.5185 152.339 30.3301 152.56 29.0065C152.992 26.3083 155.185 24.4218 157.898 24.4218C159.251 24.4218 160.351 24.8712 161.075 25.7192C161.804 26.5759 162.092 27.7716 161.881 29.0894Z" fill="#179BD7"/>
<path d="M174.137 11.3163L170.054 37.2916C169.974 37.7949 170.363 38.2487 170.871 38.2487H174.976C175.658 38.2487 176.237 37.7541 176.342 37.0807L180.368 11.5738C180.448 11.0705 180.058 10.6152 179.55 10.6152H174.954C174.548 10.6167 174.199 10.9134 174.137 11.3163Z" fill="#179BD7"/>
<path d="M11.1854 43.2058L11.9461 38.3738L10.2515 38.3345H2.15991L7.78319 2.67925C7.80064 2.57161 7.85737 2.47125 7.94028 2.39997C8.02318 2.3287 8.12937 2.28943 8.23991 2.28943H21.8835C26.413 2.28943 29.5388 3.23197 31.1708 5.09234C31.9359 5.96507 32.4232 6.87707 32.6588 7.8807C32.9061 8.93379 32.9105 10.192 32.669 11.7265L32.6515 11.8385V12.8218L33.4166 13.2552C34.061 13.5971 34.573 13.9883 34.9657 14.4363C35.6203 15.1825 36.0435 16.1309 36.2225 17.2552C36.4072 18.4116 36.3461 19.7876 36.0435 21.3454C35.6945 23.1374 35.1301 24.6982 34.3679 25.9752C33.6668 27.152 32.7737 28.128 31.7134 28.8843C30.701 29.6029 29.4981 30.1483 28.1381 30.4974C26.8203 30.8407 25.3177 31.0138 23.6697 31.0138H22.6079C21.8486 31.0138 21.1112 31.2872 20.5323 31.7774C19.9519 32.2778 19.5679 32.9614 19.4501 33.7091L19.3701 34.144L18.0261 42.6603L17.965 42.9731C17.949 43.072 17.9214 43.1214 17.8806 43.1549C17.8443 43.1854 17.7919 43.2058 17.741 43.2058H11.1854Z" fill="#253B80"/>
<path d="M34.1411 11.9519C34.1003 12.2123 34.0538 12.4785 34.0014 12.7519C32.2022 21.9897 26.0465 25.181 18.1847 25.181H14.1818C13.2203 25.181 12.4102 25.8792 12.2603 26.8275L10.2109 39.8254L9.63053 43.5097C9.53307 44.1323 10.0131 44.6937 10.6414 44.6937H17.7411C18.5818 44.6937 19.296 44.0828 19.4283 43.2537L19.4982 42.893L20.8349 34.4101L20.9207 33.9446C21.0516 33.1126 21.7673 32.5017 22.608 32.5017H23.6698C30.5483 32.5017 35.9331 29.709 37.5069 21.6275C38.1643 18.2515 37.824 15.4326 36.0843 13.4501C35.5578 12.8523 34.9047 12.3563 34.1411 11.9519Z" fill="#179BD7"/>
<path d="M32.2588 11.2014C31.9839 11.1214 31.7003 11.0486 31.4093 10.9832C31.117 10.9192 30.8173 10.8625 30.509 10.813C29.4297 10.6385 28.2472 10.5555 26.9803 10.5555H16.2864C16.0232 10.5555 15.773 10.6152 15.549 10.7228C15.0559 10.9599 14.6893 11.4268 14.6006 11.9985L12.3257 26.4072L12.2603 26.8275C12.4101 25.8792 13.2203 25.181 14.1817 25.181H18.1846C26.0464 25.181 32.2021 21.9883 34.0013 12.7519C34.0552 12.4785 34.1003 12.2123 34.141 11.9519C33.6857 11.7105 33.1926 11.5039 32.6617 11.3279C32.5308 11.2843 32.3955 11.2421 32.2588 11.2014Z" fill="#222D65"/>
<path d="M14.6007 11.9985C14.6894 11.4268 15.056 10.9599 15.549 10.7243C15.7745 10.6167 16.0232 10.557 16.2865 10.557H26.9803C28.2472 10.557 29.4298 10.6399 30.509 10.8145C30.8174 10.8639 31.117 10.9207 31.4094 10.9847C31.7003 11.0501 31.984 11.1228 32.2589 11.2028C32.3956 11.2436 32.5309 11.2857 32.6632 11.3279C33.1941 11.5039 33.6872 11.7119 34.1425 11.9519C34.6778 8.53811 34.1381 6.21375 32.2923 4.10902C30.2574 1.79193 26.5847 0.799927 21.885 0.799927H8.24141C7.28141 0.799927 6.4625 1.49811 6.31414 2.44793L0.631228 38.4697C0.519228 39.1825 1.06905 39.8254 1.78759 39.8254H10.2109L12.3258 26.4072L14.6007 11.9985Z" fill="#253B80"/>
</g>
<defs>
<clipPath id="clip0_705_666">
<rect width="180.364" height="48" fill="white" transform="translate(0.616699 0.799927)"/>
</clipPath>
</defs>
</svg>
