<svg width="47" height="47" viewBox="0 0 47 47" fill="none" xmlns="http://www.w3.org/2000/svg">
<g clip-path="url(#clip0_516_0)">
<path d="M0.716797 46.2205H46.7163V0.220928H0.716797V46.2205Z" fill="white"/>
<path d="M0.716797 46.2205H46.7163V23.2207H0.716797V46.2205Z" fill="#1A1F71"/>
<path d="M22.7206 6.65183L20.5112 16.9811H17.8388L20.0484 6.65183H22.7206ZM33.9632 13.3216L35.3696 9.44273L36.1791 13.3216H33.9632ZM36.9457 16.9811H39.4167L37.258 6.65183H34.9786C34.465 6.65183 34.0319 6.94966 33.8403 7.40897L29.8306 16.9811H32.6371L33.1942 15.4385H36.6221L36.9457 16.9811ZM29.9698 13.609C29.9814 10.8829 26.2012 10.7319 26.2266 9.51382C26.2347 9.14373 26.5878 8.74947 27.3596 8.64864C27.7422 8.59939 28.7981 8.55943 29.9951 9.11097L30.4632 6.91969C29.8204 6.68714 28.9931 6.46318 27.9636 6.46318C25.3219 6.46318 23.4635 7.86641 23.4487 9.8774C23.4317 11.3645 24.7762 12.1937 25.787 12.689C26.8292 13.1952 27.1784 13.5198 27.1733 13.9721C27.1661 14.6651 26.3423 14.972 25.5751 14.9836C24.2309 15.0045 23.4517 14.6203 22.8307 14.3308L22.3456 16.5953C22.971 16.8815 24.1233 17.1305 25.3165 17.1433C28.1251 17.1433 29.9614 15.7566 29.9698 13.609ZM18.9021 6.65183L14.5723 16.9811H11.7479L9.61707 8.73762C9.4879 8.23069 9.37522 8.04437 8.98236 7.83017C8.33976 7.48122 7.27897 7.15481 6.34619 6.95176L6.40938 6.65183H10.9564C11.5356 6.65183 12.0567 7.03725 12.1894 7.70448L13.315 13.6822L16.0947 6.65183H18.9021Z" fill="#1A1F71"/>
<path d="M11.4328 35.9592C11.7346 36.1373 12.2067 36.2921 12.6943 36.2921C13.2979 36.2921 13.6383 36.0056 13.6383 35.58C13.6383 35.1853 13.3753 34.9532 12.7173 34.7134C11.8508 34.4114 11.3013 33.9472 11.3013 33.2043C11.3013 32.3451 12.0132 31.703 13.1509 31.703C13.7159 31.703 14.1259 31.8268 14.3968 31.9583L14.1724 32.7322C13.9789 32.6316 13.6153 32.4845 13.1276 32.4845C12.524 32.4845 12.2687 32.8019 12.2687 33.1113C12.2687 33.514 12.5703 33.6994 13.267 33.9626C14.1724 34.3108 14.6057 34.7676 14.6057 35.5103C14.6057 36.3539 13.9712 37.0736 12.6323 37.0736C12.0752 37.0736 11.5025 36.9189 11.2161 36.7486L11.4328 35.9592Z" fill="white"/>
<path d="M18.3055 34.6823H16.3398V36.2147H18.5378V36.9962H15.3879V31.7803H18.4216V32.5619H16.3398V33.9084H18.3055V34.6823Z" fill="white"/>
<path d="M23.0347 36.8414C22.8103 36.9497 22.315 37.0735 21.6805 37.0735C20.0243 37.0735 19.0183 36.0364 19.0183 34.4501C19.0183 32.7323 20.2178 31.7029 21.812 31.7029C22.4388 31.7029 22.88 31.8267 23.0735 31.9273L22.8723 32.6856C22.6247 32.5773 22.2764 32.4844 21.8508 32.4844C20.7905 32.4844 20.0243 33.15 20.0243 34.4036C20.0243 35.5492 20.6899 36.2764 21.8429 36.2764C22.222 36.2764 22.6247 36.199 22.88 36.0908L23.0347 36.8414Z" fill="white"/>
<path d="M24.7148 31.7803V34.8216C24.7148 35.8431 25.1404 36.3152 25.7828 36.3152C26.4716 36.3152 26.8817 35.8431 26.8817 34.8216V31.7803H27.8335V34.7596C27.8335 36.3693 27.0055 37.0812 25.7519 37.0812C24.5445 37.0812 23.7629 36.4081 23.7629 34.7675V31.7803H24.7148Z" fill="white"/>
<path d="M29.7923 34.1561H30.3573C30.9997 34.1561 31.3944 33.8155 31.3944 33.2972C31.3944 32.7322 30.9997 32.4613 30.3806 32.4613C30.0786 32.4613 29.8853 32.4845 29.7923 32.5077V34.1561ZM28.8486 31.8575C29.212 31.788 29.7384 31.7415 30.2879 31.7415C31.0383 31.7415 31.5415 31.8654 31.8974 32.1595C32.1836 32.3992 32.346 32.7631 32.346 33.2121C32.346 33.8852 31.8895 34.3417 31.3944 34.512V34.5352C31.7734 34.6744 31.998 35.0382 32.1218 35.5412C32.2921 36.1914 32.4313 36.7948 32.5321 36.9962H31.5571C31.4795 36.8415 31.3477 36.4159 31.2086 35.7658C31.0538 35.0847 30.8139 34.8679 30.2723 34.8526H29.7923V36.9962H28.8486V31.8575Z" fill="white"/>
<path d="M36.0923 34.6823H34.1266V36.2147H36.3244V36.9962H33.1748V31.7803H36.2083V32.5619H34.1266V33.9084H36.0923V34.6823Z" fill="white"/>
</g>
<defs>
<clipPath id="clip0_516_0">
<rect width="46" height="46" fill="white" transform="translate(0.716797 0.220825)"/>
</clipPath>
</defs>
</svg>
