<svg width="80" height="48" viewBox="0 0 80 48" fill="none" xmlns="http://www.w3.org/2000/svg">
<rect y="0.220825" width="79.4373" height="47.3431" rx="4" fill="white"/>
<path d="M28.4136 15.6532L24.0705 26.8943L22.2821 18.0802C22.2821 18.0802 22.1544 15.6532 20.366 15.6532H13.3403V16.0364C13.3403 16.0364 15.5119 16.4196 17.939 17.9525H17.8112L21.6434 32.1316H25.9866L32.7568 15.6532H28.4136ZM31.8626 32.1316H36.078L38.6328 15.6532H34.5451L31.8626 32.1316ZM44.8921 20.1241C44.8921 20.1241 45.5308 17.3138 50.8958 19.6131L51.5345 16.1641C51.5345 16.1641 49.7462 15.3977 47.5746 15.3977C45.403 15.3977 40.6767 16.8028 40.6767 20.8905C40.6767 24.9782 46.5527 25.1059 46.5527 27.4052C46.5527 29.7046 41.3154 29.4491 39.6547 27.9162L38.8883 31.4929C38.8883 31.4929 41.3154 32.3871 43.3592 32.3871C45.5308 32.3871 50.7681 31.8761 50.7681 26.6388C50.7681 22.0402 44.8921 22.9344 44.8921 20.1241ZM62.2647 15.7809H58.688C58.688 15.7809 57.2828 15.9087 56.7719 17.5693C56.1332 19.1022 50.6404 32.1316 50.6404 32.1316H55.239L56.0054 29.7046H61.626L62.1369 32.0039H66.0969L62.2647 15.7809ZM57.1551 26.3833L59.4544 20.2518L60.8595 26.3833H57.1551Z" fill="#1434CB"/>
</svg>
